<svg xmlns="http://www.w3.org/2000/svg" xmlns:xlink="http://www.w3.org/1999/xlink" version="1.1" data-diagram-type="SEQUENCE" style="width:1630px;height:2290px;background:#FFFFFF;" width="1630px" height="2290px" viewBox="0 0 1630 2290" zoomAndPan="magnify" preserveAspectRatio="none" contentStyleType="text/css"><?plantuml 1.2026.8?><defs/><g font-family="sans-serif" lengthAdjust="spacing"><g class="title" data-source-line="14"><text x="691.774" y="31.24" fill="#000" font-size="14" textLength="245.436" font-weight="700" font-family="Noto Sans CJK JP">編集・検証・保存の処理順（設計案）</text></g><rect x="335.414" y="274.216" width="1250.57" height="269.416" fill="none" style="stroke:#000;stroke-width:1.5;"/><rect x="335.414" y="725.752" width="1250.57" height="190.768" fill="none" style="stroke:#000;stroke-width:1.5;"/><rect x="335.414" y="1117.464" width="1250.57" height="170.944" fill="none" style="stroke:#000;stroke-width:1.5;"/><rect x="316.414" y="1595.001" width="1294.57" height="550.008" fill="none" style="stroke:#000;stroke-width:1.5;"/><rect x="335.414" y="1679.473" width="1250.57" height="361.064" fill="none" style="stroke:#000;stroke-width:1.5;"/><g><title>B2 UI..</title><rect x="42.425" y="85.096" width="8" height="2160.385" fill="#000" fill-opacity="0"/><line x1="45.925" y1="85.096" x2="45.925" y2="2245.481" style="stroke:#181818;stroke-width:0.5;stroke-dasharray:5,5;"/></g><g><title>B7 ....</title><rect x="347.914" y="85.096" width="8" height="2160.385" fill="#000" fill-opacity="0"/><line x1="351.414" y1="85.096" x2="351.414" y2="2245.481" style="stroke:#181818;stroke-width:0.5;stroke-dasharray:5,5;"/></g><g><title>B3 ...</title><rect x="654.028" y="85.096" width="8" height="2160.385" fill="#000" fill-opacity="0"/><line x1="657.528" y1="85.096" x2="657.528" y2="2245.481" style="stroke:#181818;stroke-width:0.5;stroke-dasharray:5,5;"/></g><g><title>B5 .....</title><rect x="748.696" y="85.096" width="8" height="2160.385" fill="#000" fill-opacity="0"/><line x1="752.196" y1="85.096" x2="752.196" y2="2245.481" style="stroke:#181818;stroke-width:0.5;stroke-dasharray:5,5;"/></g><g><title>B1 ......</title><rect x="995.76" y="85.096" width="8" height="2160.385" fill="#000" fill-opacity="0"/><line x1="999.26" y1="85.096" x2="999.26" y2="2245.481" style="stroke:#181818;stroke-width:0.5;stroke-dasharray:5,5;"/></g><g><title>B4 ......</title><rect x="1276.299" y="85.096" width="8" height="2160.385" fill="#000" fill-opacity="0"/><line x1="1279.799" y1="85.096" x2="1279.799" y2="2245.481" style="stroke:#181818;stroke-width:0.5;stroke-dasharray:5,5;"/></g><g><title>B6 ....</title><rect x="1566.484" y="85.096" width="8" height="2160.385" fill="#000" fill-opacity="0"/><line x1="1569.984" y1="85.096" x2="1569.984" y2="2245.481" style="stroke:#181818;stroke-width:0.5;stroke-dasharray:5,5;"/></g><rect x="10" y="51.272" width="71.85" height="32.824" fill="#EFF6FF" style="stroke:#64748B;stroke-width:0.5;" rx="2.5" ry="2.5"/><text x="17" y="73.352" fill="#000" font-size="13" textLength="57.85" font-family="Noto Sans CJK JP">B2 UI入力</text><rect x="309.08" y="51.272" width="84.668" height="32.824" fill="#EFF6FF" style="stroke:#64748B;stroke-width:0.5;" rx="2.5" ry="2.5"/><text x="316.08" y="73.352" fill="#000" font-size="13" textLength="70.668" font-family="Noto Sans CJK JP">B7 操作統括</text><rect x="621.694" y="51.272" width="71.668" height="32.824" fill="#EFF6FF" style="stroke:#64748B;stroke-width:0.5;" rx="2.5" ry="2.5"/><text x="628.694" y="73.352" fill="#000" font-size="13" textLength="57.668" font-family="Noto Sans CJK JP">B3 モデル</text><rect x="703.362" y="51.272" width="97.668" height="32.824" fill="#EFF6FF" style="stroke:#64748B;stroke-width:0.5;" rx="2.5" ry="2.5"/><text x="710.362" y="73.352" fill="#000" font-size="13" textLength="83.668" font-family="Noto Sans CJK JP">B5 解析・検証</text><rect x="943.926" y="51.272" width="110.668" height="32.824" fill="#EFF6FF" style="stroke:#64748B;stroke-width:0.5;" rx="2.5" ry="2.5"/><text x="950.926" y="73.352" fill="#000" font-size="13" textLength="96.668" font-family="Noto Sans CJK JP">B1 ファイル入力</text><rect x="1224.465" y="51.272" width="110.668" height="32.824" fill="#EFF6FF" style="stroke:#64748B;stroke-width:0.5;" rx="2.5" ry="2.5"/><text x="1231.465" y="73.352" fill="#000" font-size="13" textLength="96.668" font-family="Noto Sans CJK JP">B4 ファイル出力</text><rect x="1527.65" y="51.272" width="84.668" height="32.824" fill="#EFF6FF" style="stroke:#64748B;stroke-width:0.5;" rx="2.5" ry="2.5"/><text x="1534.65" y="73.352" fill="#000" font-size="13" textLength="70.668" font-family="Noto Sans CJK JP">B6 画面出力</text><rect x="10" y="2245.481" width="71.85" height="32.824" fill="#EFF6FF" style="stroke:#64748B;stroke-width:0.5;" rx="2.5" ry="2.5"/><text x="17" y="2267.561" fill="#000" font-size="13" textLength="57.85" font-family="Noto Sans CJK JP">B2 UI入力</text><rect x="309.08" y="2245.481" width="84.668" height="32.824" fill="#EFF6FF" style="stroke:#64748B;stroke-width:0.5;" rx="2.5" ry="2.5"/><text x="316.08" y="2267.561" fill="#000" font-size="13" textLength="70.668" font-family="Noto Sans CJK JP">B7 操作統括</text><rect x="621.694" y="2245.481" width="71.668" height="32.824" fill="#EFF6FF" style="stroke:#64748B;stroke-width:0.5;" rx="2.5" ry="2.5"/><text x="628.694" y="2267.561" fill="#000" font-size="13" textLength="57.668" font-family="Noto Sans CJK JP">B3 モデル</text><rect x="703.362" y="2245.481" width="97.668" height="32.824" fill="#EFF6FF" style="stroke:#64748B;stroke-width:0.5;" rx="2.5" ry="2.5"/><text x="710.362" y="2267.561" fill="#000" font-size="13" textLength="83.668" font-family="Noto Sans CJK JP">B5 解析・検証</text><rect x="943.926" y="2245.481" width="110.668" height="32.824" fill="#EFF6FF" style="stroke:#64748B;stroke-width:0.5;" rx="2.5" ry="2.5"/><text x="950.926" y="2267.561" fill="#000" font-size="13" textLength="96.668" font-family="Noto Sans CJK JP">B1 ファイル入力</text><rect x="1224.465" y="2245.481" width="110.668" height="32.824" fill="#EFF6FF" style="stroke:#64748B;stroke-width:0.5;" rx="2.5" ry="2.5"/><text x="1231.465" y="2267.561" fill="#000" font-size="13" textLength="96.668" font-family="Noto Sans CJK JP">B4 ファイル出力</text><rect x="1527.65" y="2245.481" width="84.668" height="32.824" fill="#EFF6FF" style="stroke:#64748B;stroke-width:0.5;" rx="2.5" ry="2.5"/><text x="1534.65" y="2267.561" fill="#000" font-size="13" textLength="70.668" font-family="Noto Sans CJK JP">B6 画面出力</text><polygon points="339.414,113.92,349.414,117.92,339.414,121.92,343.414,117.92" fill="#475569" style="stroke:#475569;stroke-width:1;stroke-linejoin:miter;stroke-miterlimit:10;"/><line x1="45.925" y1="117.92" x2="345.414" y2="117.92" style="stroke:#475569;stroke-width:1;"/><text x="52.925" y="112.176" fill="#000" font-size="13" textLength="86.164" font-family="Noto Sans CJK JP">Open / Reload</text><polygon points="987.26,146.744,997.26,150.744,987.26,154.744,991.26,150.744" fill="#475569" style="stroke:#475569;stroke-width:1;stroke-linejoin:miter;stroke-miterlimit:10;"/><line x1="351.414" y1="150.744" x2="993.26" y2="150.744" style="stroke:#475569;stroke-width:1;"/><text x="358.414" y="145" fill="#000" font-size="13" textLength="91" font-family="Noto Sans CJK JP">入力候補を取得</text><line x1="999.26" y1="183.568" x2="1041.26" y2="183.568" style="stroke:#475569;stroke-width:1;"/><line x1="1041.26" y1="183.568" x2="1041.26" y2="196.568" style="stroke:#475569;stroke-width:1;"/><line x1="1000.26" y1="196.568" x2="1041.26" y2="196.568" style="stroke:#475569;stroke-width:1;"/><polygon points="1010.26,192.568,1000.26,196.568,1010.26,200.568,1006.26,196.568" fill="#475569" style="stroke:#475569;stroke-width:1;stroke-linejoin:miter;stroke-miterlimit:10;"/><text x="1006.26" y="177.824" fill="#000" font-size="13" textLength="266.539" font-family="Noto Sans CJK JP">bytes・metadata取得後に全ハンドルをclose</text><polygon points="763.196,225.392,753.196,229.392,763.196,233.392,759.196,229.392" fill="#475569" style="stroke:#475569;stroke-width:1;stroke-linejoin:miter;stroke-miterlimit:10;"/><line x1="757.196" y1="229.392" x2="998.26" y2="229.392" style="stroke:#475569;stroke-width:1;"/><text x="769.196" y="223.648" fill="#000" font-size="13" textLength="147.147" font-family="Noto Sans CJK JP">原文snapshotの構文解析</text><polygon points="987.26,258.216,997.26,262.216,987.26,266.216,991.26,262.216" fill="#475569" style="stroke:#475569;stroke-width:1;stroke-linejoin:miter;stroke-miterlimit:10;"/><line x1="752.196" y1="262.216" x2="993.26" y2="262.216" style="stroke:#475569;stroke-width:1;stroke-dasharray:2,2;"/><text x="759.196" y="256.472" fill="#000" font-size="13" textLength="96.629" font-family="Noto Sans CJK JP">parse結果 / 診断</text><path d="M335.414,274.216 L397.545,274.216 L397.545,285.04 L387.545,295.04 L335.414,295.04 L335.414,274.216" style="stroke:#000;stroke-width:1.5;" fill="#EEE"/><rect x="335.414" y="274.216" width="1250.57" height="269.416" fill="none" style="stroke:#000;stroke-width:1.5;"/><text x="350.414" y="290.296" fill="#000" font-size="13" textLength="17.131" font-weight="700" font-family="Noto Sans CJK JP">alt</text><text x="412.545" y="291.296" fill="#000" font-size="13" textLength="135.707" font-weight="700" font-family="Noto Sans CJK JP">[全入力の構文解析OK]</text><polygon points="362.414,329.688,352.414,333.688,362.414,337.688,358.414,333.688" fill="#475569" style="stroke:#475569;stroke-width:1;stroke-linejoin:miter;stroke-miterlimit:10;"/><line x1="356.414" y1="333.688" x2="998.26" y2="333.688" style="stroke:#475569;stroke-width:1;stroke-dasharray:2,2;"/><text x="368.414" y="327.944" fill="#000" font-size="13" textLength="145.067" font-family="Noto Sans CJK JP">原文snapshot / 解析結果</text><polygon points="645.528,362.512,655.528,366.512,645.528,370.512,649.528,366.512" fill="#475569" style="stroke:#475569;stroke-width:1;stroke-linejoin:miter;stroke-miterlimit:10;"/><line x1="351.414" y1="366.512" x2="651.528" y2="366.512" style="stroke:#475569;stroke-width:1;"/><text x="358.414" y="360.768" fill="#000" font-size="13" textLength="143" font-family="Noto Sans CJK JP">一括登録・内部モデル化</text><polygon points="1557.984,395.336,1567.984,399.336,1557.984,403.336,1561.984,399.336" fill="#475569" style="stroke:#475569;stroke-width:1;stroke-linejoin:miter;stroke-miterlimit:10;"/><line x1="351.414" y1="399.336" x2="1563.984" y2="399.336" style="stroke:#475569;stroke-width:1;"/><text x="358.414" y="393.592" fill="#000" font-size="13" textLength="143" font-family="Noto Sans CJK JP">構造・意味検証は未実施</text><line x1="335.414" y1="408.336" x2="1585.984" y2="408.336" style="stroke:#000;stroke-width:1;stroke-dasharray:2,2;"/><text x="340.414" y="425.416" fill="#000" font-size="13" textLength="82.394" font-weight="700" font-family="Noto Sans CJK JP">[構文解析NG]</text><line x1="999.26" y1="456.984" x2="1041.26" y2="456.984" style="stroke:#475569;stroke-width:1;"/><line x1="1041.26" y1="456.984" x2="1041.26" y2="469.984" style="stroke:#475569;stroke-width:1;"/><line x1="1000.26" y1="469.984" x2="1041.26" y2="469.984" style="stroke:#475569;stroke-width:1;"/><polygon points="1010.26,465.984,1000.26,469.984,1010.26,473.984,1006.26,469.984" fill="#475569" style="stroke:#475569;stroke-width:1;stroke-linejoin:miter;stroke-miterlimit:10;"/><text x="1006.26" y="451.24" fill="#000" font-size="13" textLength="91" font-family="Noto Sans CJK JP">入力候補を破棄</text><polygon points="362.414,498.808,352.414,502.808,362.414,506.808,358.414,502.808" fill="#475569" style="stroke:#475569;stroke-width:1;stroke-linejoin:miter;stroke-miterlimit:10;"/><line x1="356.414" y1="502.808" x2="998.26" y2="502.808" style="stroke:#475569;stroke-width:1;stroke-dasharray:2,2;"/><text x="368.414" y="497.064" fill="#000" font-size="13" textLength="88.92" font-family="Noto Sans CJK JP">読込失敗 / 診断</text><polygon points="1557.984,531.632,1567.984,535.632,1557.984,539.632,1561.984,535.632" fill="#475569" style="stroke:#475569;stroke-width:1;stroke-linejoin:miter;stroke-miterlimit:10;"/><line x1="351.414" y1="535.632" x2="1563.984" y2="535.632" style="stroke:#475569;stroke-width:1;"/><text x="358.414" y="529.888" fill="#000" font-size="13" textLength="156" font-family="Noto Sans CJK JP">診断（既存モデルは維持）</text><polygon points="339.414,578.456,349.414,582.456,339.414,586.456,343.414,582.456" fill="#475569" style="stroke:#475569;stroke-width:1;stroke-linejoin:miter;stroke-miterlimit:10;"/><line x1="45.925" y1="582.456" x2="345.414" y2="582.456" style="stroke:#475569;stroke-width:1;"/><text x="52.925" y="576.712" fill="#000" font-size="13" textLength="219.076" font-family="Noto Sans CJK JP">図操作(command_id, base_revision)</text><polygon points="645.528,611.28,655.528,615.28,645.528,619.28,649.528,615.28" fill="#475569" style="stroke:#475569;stroke-width:1;stroke-linejoin:miter;stroke-miterlimit:10;"/><line x1="351.414" y1="615.28" x2="651.528" y2="615.28" style="stroke:#475569;stroke-width:1;"/><text x="358.414" y="609.536" fill="#000" font-size="13" textLength="156" font-family="Noto Sans CJK JP">現在版・原文・索引を取得</text><polygon points="362.414,644.104,352.414,648.104,362.414,652.104,358.414,648.104" fill="#475569" style="stroke:#475569;stroke-width:1;stroke-linejoin:miter;stroke-miterlimit:10;"/><line x1="356.414" y1="648.104" x2="656.528" y2="648.104" style="stroke:#475569;stroke-width:1;stroke-dasharray:2,2;"/><text x="368.414" y="642.36" fill="#000" font-size="13" textLength="82.147" font-family="Noto Sans CJK JP">不変snapshot</text><polygon points="740.196,676.928,750.196,680.928,740.196,684.928,744.196,680.928" fill="#475569" style="stroke:#475569;stroke-width:1;stroke-linejoin:miter;stroke-miterlimit:10;"/><line x1="351.414" y1="680.928" x2="746.196" y2="680.928" style="stroke:#475569;stroke-width:1;"/><text x="358.414" y="675.184" fill="#000" font-size="13" textLength="198.51" font-family="Noto Sans CJK JP">patch作成・候補原文を共通parse</text><polygon points="362.414,709.752,352.414,713.752,362.414,717.752,358.414,713.752" fill="#475569" style="stroke:#475569;stroke-width:1;stroke-linejoin:miter;stroke-miterlimit:10;"/><line x1="356.414" y1="713.752" x2="751.196" y2="713.752" style="stroke:#475569;stroke-width:1;stroke-dasharray:2,2;"/><text x="368.414" y="708.008" fill="#000" font-size="13" textLength="123.721" font-family="Noto Sans CJK JP">patch / 構文解析結果</text><path d="M335.414,725.752 L397.545,725.752 L397.545,736.576 L387.545,746.576 L335.414,746.576 L335.414,725.752" style="stroke:#000;stroke-width:1.5;" fill="#EEE"/><rect x="335.414" y="725.752" width="1250.57" height="190.768" fill="none" style="stroke:#000;stroke-width:1.5;"/><text x="350.414" y="741.832" fill="#000" font-size="13" textLength="17.131" font-weight="700" font-family="Noto Sans CJK JP">alt</text><text x="412.545" y="742.832" fill="#000" font-size="13" textLength="157.069" font-weight="700" font-family="Noto Sans CJK JP">[対応が一意で構文が成立]</text><polygon points="645.528,781.224,655.528,785.224,645.528,789.224,649.528,785.224" fill="#475569" style="stroke:#475569;stroke-width:1;stroke-linejoin:miter;stroke-miterlimit:10;"/><line x1="351.414" y1="785.224" x2="651.528" y2="785.224" style="stroke:#475569;stroke-width:1;"/><text x="358.414" y="779.48" fill="#000" font-size="13" textLength="151.06" font-family="Noto Sans CJK JP">原文・配置を一括commit</text><polygon points="362.414,814.048,352.414,818.048,362.414,822.048,358.414,818.048" fill="#475569" style="stroke:#475569;stroke-width:1;stroke-linejoin:miter;stroke-miterlimit:10;"/><line x1="356.414" y1="818.048" x2="656.528" y2="818.048" style="stroke:#475569;stroke-width:1;stroke-dasharray:2,2;"/><text x="368.414" y="812.304" fill="#000" font-size="13" textLength="159.666" font-family="Noto Sans CJK JP">新revision / input_revision</text><polygon points="1557.984,846.872,1567.984,850.872,1557.984,854.872,1561.984,850.872" fill="#475569" style="stroke:#475569;stroke-width:1;stroke-linejoin:miter;stroke-miterlimit:10;"/><line x1="351.414" y1="850.872" x2="1563.984" y2="850.872" style="stroke:#475569;stroke-width:1;"/><text x="358.414" y="845.128" fill="#000" font-size="13" textLength="169" font-family="Noto Sans CJK JP">編集後の図・未接続等の状態</text><line x1="335.414" y1="859.872" x2="1585.984" y2="859.872" style="stroke:#000;stroke-width:1;stroke-dasharray:2,2;"/><text x="340.414" y="876.952" fill="#000" font-size="13" textLength="197.288" font-weight="700" font-family="Noto Sans CJK JP">[版・位置対応・構文候補が不正]</text><polygon points="1557.984,904.52,1567.984,908.52,1557.984,912.52,1561.984,908.52" fill="#475569" style="stroke:#475569;stroke-width:1;stroke-linejoin:miter;stroke-miterlimit:10;"/><line x1="351.414" y1="908.52" x2="1563.984" y2="908.52" style="stroke:#475569;stroke-width:1;"/><text x="358.414" y="902.776" fill="#000" font-size="13" textLength="182" font-family="Noto Sans CJK JP">診断（元モデルは変更しない）</text><polygon points="339.414,951.344,349.414,955.344,339.414,959.344,343.414,955.344" fill="#475569" style="stroke:#475569;stroke-width:1;stroke-linejoin:miter;stroke-miterlimit:10;"/><line x1="45.925" y1="955.344" x2="345.414" y2="955.344" style="stroke:#475569;stroke-width:1;"/><text x="52.925" y="949.6" fill="#000" font-size="13" textLength="222.326" font-family="Noto Sans CJK JP">Validate（送信待ち原文をflush済み）</text><polygon points="645.528,984.168,655.528,988.168,645.528,992.168,649.528,988.168" fill="#475569" style="stroke:#475569;stroke-width:1;stroke-linejoin:miter;stroke-miterlimit:10;"/><line x1="351.414" y1="988.168" x2="651.528" y2="988.168" style="stroke:#475569;stroke-width:1;"/><text x="358.414" y="982.424" fill="#000" font-size="13" textLength="160.147" font-family="Noto Sans CJK JP">全入力の不変snapshot取得</text><polygon points="362.414,1016.992,352.414,1020.992,362.414,1024.992,358.414,1020.992" fill="#475569" style="stroke:#475569;stroke-width:1;stroke-linejoin:miter;stroke-miterlimit:10;"/><line x1="356.414" y1="1020.992" x2="656.528" y2="1020.992" style="stroke:#475569;stroke-width:1;stroke-dasharray:2,2;"/><text x="368.414" y="1015.248" fill="#000" font-size="13" textLength="170.417" font-family="Noto Sans CJK JP">input_revision / snapshot ID</text><polygon points="740.196,1068.64,750.196,1072.64,740.196,1076.64,744.196,1072.64" fill="#475569" style="stroke:#475569;stroke-width:1;stroke-linejoin:miter;stroke-miterlimit:10;"/><line x1="351.414" y1="1072.64" x2="746.196" y2="1072.64" style="stroke:#475569;stroke-width:1;"/><text x="358.414" y="1048.072" fill="#000" font-size="13" textLength="207.207" font-family="Noto Sans CJK JP">prepare_with_source(config, cwd,</text><text x="358.414" y="1066.896" fill="#000" font-size="13" textLength="202.124" font-family="Noto Sans CJK JP">SnapshotInputSource(snapshot))</text><polygon points="362.414,1101.464,352.414,1105.464,362.414,1109.464,358.414,1105.464" fill="#475569" style="stroke:#475569;stroke-width:1;stroke-linejoin:miter;stroke-miterlimit:10;"/><line x1="356.414" y1="1105.464" x2="751.196" y2="1105.464" style="stroke:#475569;stroke-width:1;stroke-dasharray:2,2;"/><text x="368.414" y="1099.72" fill="#000" font-size="13" textLength="176.605" font-family="Noto Sans CJK JP">正式判定 / 対象input_revision</text><path d="M335.414,1117.464 L397.545,1117.464 L397.545,1128.288 L387.545,1138.288 L335.414,1138.288 L335.414,1117.464" style="stroke:#000;stroke-width:1.5;" fill="#EEE"/><rect x="335.414" y="1117.464" width="1250.57" height="170.944" fill="none" style="stroke:#000;stroke-width:1.5;"/><text x="350.414" y="1133.544" fill="#000" font-size="13" textLength="17.131" font-weight="700" font-family="Noto Sans CJK JP">alt</text><text x="412.545" y="1134.544" fill="#000" font-size="13" textLength="130.257" font-weight="700" font-family="Noto Sans CJK JP">[現在の入力版と一致]</text><polygon points="645.528,1172.937,655.528,1176.937,645.528,1180.937,649.528,1176.937" fill="#475569" style="stroke:#475569;stroke-width:1;stroke-linejoin:miter;stroke-miterlimit:10;"/><line x1="351.414" y1="1176.937" x2="651.528" y2="1176.937" style="stroke:#475569;stroke-width:1;"/><text x="358.414" y="1171.193" fill="#000" font-size="13" textLength="91" font-family="Noto Sans CJK JP">検証結果を採用</text><polygon points="1557.984,1205.761,1567.984,1209.761,1557.984,1213.761,1561.984,1209.761" fill="#475569" style="stroke:#475569;stroke-width:1;stroke-linejoin:miter;stroke-miterlimit:10;"/><line x1="351.414" y1="1209.761" x2="1563.984" y2="1209.761" style="stroke:#475569;stroke-width:1;"/><text x="358.414" y="1204.017" fill="#000" font-size="13" textLength="168.493" font-family="Noto Sans CJK JP">ready または prepare_failed</text><line x1="335.414" y1="1218.761" x2="1585.984" y2="1218.761" style="stroke:#000;stroke-width:1;stroke-dasharray:2,2;"/><text x="340.414" y="1235.841" fill="#000" font-size="13" textLength="269.747" font-weight="700" font-family="Noto Sans CJK JP">[版照合NG（旧job・対象snapshot不一致）]</text><line x1="351.414" y1="1267.409" x2="393.414" y2="1267.409" style="stroke:#475569;stroke-width:1;"/><line x1="393.414" y1="1267.409" x2="393.414" y2="1280.409" style="stroke:#475569;stroke-width:1;"/><line x1="352.414" y1="1280.409" x2="393.414" y2="1280.409" style="stroke:#475569;stroke-width:1;"/><polygon points="362.414,1276.409,352.414,1280.409,362.414,1284.409,358.414,1280.409" fill="#475569" style="stroke:#475569;stroke-width:1;stroke-linejoin:miter;stroke-miterlimit:10;"/><text x="358.414" y="1261.665" fill="#000" font-size="13" textLength="91" font-family="Noto Sans CJK JP">古い結果を破棄</text><polygon points="339.414,1323.233,349.414,1327.233,339.414,1331.233,343.414,1327.233" fill="#475569" style="stroke:#475569;stroke-width:1;stroke-linejoin:miter;stroke-miterlimit:10;"/><line x1="45.925" y1="1327.233" x2="345.414" y2="1327.233" style="stroke:#475569;stroke-width:1;"/><text x="52.925" y="1321.489" fill="#000" font-size="13" textLength="281.489" font-family="Noto Sans CJK JP">SaveAsProject（上書きは別操作・確認値付き）</text><polygon points="645.528,1356.057,655.528,1360.057,645.528,1364.057,649.528,1360.057" fill="#475569" style="stroke:#475569;stroke-width:1;stroke-linejoin:miter;stroke-miterlimit:10;"/><line x1="351.414" y1="1360.057" x2="651.528" y2="1360.057" style="stroke:#475569;stroke-width:1;"/><text x="358.414" y="1354.313" fill="#000" font-size="13" textLength="199.147" font-family="Noto Sans CJK JP">保存対象版を凍結・snapshot取得</text><polygon points="362.414,1388.881,352.414,1392.881,362.414,1396.881,358.414,1392.881" fill="#475569" style="stroke:#475569;stroke-width:1;stroke-linejoin:miter;stroke-miterlimit:10;"/><line x1="356.414" y1="1392.881" x2="656.528" y2="1392.881" style="stroke:#475569;stroke-width:1;stroke-dasharray:2,2;"/><text x="368.414" y="1387.137" fill="#000" font-size="13" textLength="232.713" font-family="Noto Sans CJK JP">revision / snapshot ID / 取得済み全入力</text><polygon points="1267.799,1421.705,1277.799,1425.705,1267.799,1429.705,1271.799,1425.705" fill="#475569" style="stroke:#475569;stroke-width:1;stroke-linejoin:miter;stroke-miterlimit:10;"/><line x1="351.414" y1="1425.705" x2="1273.799" y2="1425.705" style="stroke:#475569;stroke-width:1;"/><text x="358.414" y="1419.961" fill="#000" font-size="13" textLength="290.537" font-family="Noto Sans CJK JP">SaveRequest（固定snapshot・保存先ID・種別）</text><line x1="1279.799" y1="1458.529" x2="1321.799" y2="1458.529" style="stroke:#475569;stroke-width:1;"/><line x1="1321.799" y1="1458.529" x2="1321.799" y2="1471.529" style="stroke:#475569;stroke-width:1;"/><line x1="1280.799" y1="1471.529" x2="1321.799" y2="1471.529" style="stroke:#475569;stroke-width:1;"/><polygon points="1290.799,1467.529,1280.799,1471.529,1290.799,1475.529,1286.799,1471.529" fill="#475569" style="stroke:#475569;stroke-width:1;stroke-linejoin:miter;stroke-miterlimit:10;"/><text x="1286.799" y="1452.785" fill="#000" font-size="13" textLength="266.812" font-family="Noto Sans CJK JP">出力パス対応・全bytes・INI参照patchを作成</text><polygon points="763.196,1500.353,753.196,1504.353,763.196,1508.353,759.196,1504.353" fill="#475569" style="stroke:#475569;stroke-width:1;stroke-linejoin:miter;stroke-miterlimit:10;"/><line x1="757.196" y1="1504.353" x2="1278.799" y2="1504.353" style="stroke:#475569;stroke-width:1;"/><text x="769.196" y="1498.609" fill="#000" font-size="13" textLength="255.957" font-family="Noto Sans CJK JP">SavePlan / ExportSnapshotの全体検証依頼</text><line x1="752.196" y1="1537.177" x2="794.196" y2="1537.177" style="stroke:#475569;stroke-width:1;"/><line x1="794.196" y1="1537.177" x2="794.196" y2="1550.177" style="stroke:#475569;stroke-width:1;"/><line x1="753.196" y1="1550.177" x2="794.196" y2="1550.177" style="stroke:#475569;stroke-width:1;"/><polygon points="763.196,1546.177,753.196,1550.177,763.196,1554.177,759.196,1550.177" fill="#475569" style="stroke:#475569;stroke-width:1;stroke-linejoin:miter;stroke-miterlimit:10;"/><text x="759.196" y="1531.433" fill="#000" font-size="13" textLength="233.064" font-family="Noto Sans CJK JP">出力INI・cwd・予定集合で共通prepare</text><polygon points="1267.799,1579.001,1277.799,1583.001,1267.799,1587.001,1271.799,1583.001" fill="#475569" style="stroke:#475569;stroke-width:1;stroke-linejoin:miter;stroke-miterlimit:10;"/><line x1="752.196" y1="1583.001" x2="1273.799" y2="1583.001" style="stroke:#475569;stroke-width:1;stroke-dasharray:2,2;"/><text x="759.196" y="1577.257" fill="#000" font-size="13" textLength="212.719" font-family="Noto Sans CJK JP">検証結果 / plan digest / snapshot ID</text><path d="M316.414,1595.001 L378.545,1595.001 L378.545,1605.825 L368.545,1615.825 L316.414,1615.825 L316.414,1595.001" style="stroke:#000;stroke-width:1.5;" fill="#EEE"/><rect x="316.414" y="1595.001" width="1294.57" height="550.008" fill="none" style="stroke:#000;stroke-width:1.5;"/><text x="331.414" y="1611.081" fill="#000" font-size="13" textLength="17.131" font-weight="700" font-family="Noto Sans CJK JP">alt</text><text x="393.545" y="1612.081" fill="#000" font-size="13" textLength="181.763" font-weight="700" font-family="Noto Sans CJK JP">[検証OK・SavePlanと同じ版]</text><line x1="1279.799" y1="1654.473" x2="1321.799" y2="1654.473" style="stroke:#475569;stroke-width:1;"/><line x1="1321.799" y1="1654.473" x2="1321.799" y2="1667.473" style="stroke:#475569;stroke-width:1;"/><line x1="1280.799" y1="1667.473" x2="1321.799" y2="1667.473" style="stroke:#475569;stroke-width:1;"/><polygon points="1290.799,1663.473,1280.799,1667.473,1290.799,1671.473,1286.799,1667.473" fill="#475569" style="stroke:#475569;stroke-width:1;stroke-linejoin:miter;stroke-miterlimit:10;"/><text x="1286.799" y="1648.729" fill="#000" font-size="13" textLength="276.185" font-family="Noto Sans CJK JP">選択した出力先の空状態／基準集合・hash確認</text><path d="M335.414,1679.473 L397.545,1679.473 L397.545,1690.297 L387.545,1700.297 L335.414,1700.297 L335.414,1679.473" style="stroke:#000;stroke-width:1.5;" fill="#EEE"/><rect x="335.414" y="1679.473" width="1250.57" height="361.064" fill="none" style="stroke:#000;stroke-width:1.5;"/><text x="350.414" y="1695.553" fill="#000" font-size="13" textLength="17.131" font-weight="700" font-family="Noto Sans CJK JP">alt</text><text x="412.545" y="1696.553" fill="#000" font-size="13" textLength="103.444" font-weight="700" font-family="Noto Sans CJK JP">[出力先競合なし]</text><line x1="1279.799" y1="1738.945" x2="1321.799" y2="1738.945" style="stroke:#475569;stroke-width:1;"/><line x1="1321.799" y1="1738.945" x2="1321.799" y2="1751.945" style="stroke:#475569;stroke-width:1;"/><line x1="1280.799" y1="1751.945" x2="1321.799" y2="1751.945" style="stroke:#475569;stroke-width:1;"/><polygon points="1290.799,1747.945,1280.799,1751.945,1290.799,1755.945,1286.799,1751.945" fill="#475569" style="stroke:#475569;stroke-width:1;stroke-linejoin:miter;stroke-miterlimit:10;"/><text x="1286.799" y="1733.201" fill="#000" font-size="13" textLength="233.376" font-family="Noto Sans CJK JP">出力lock・専用状態領域の復旧記録作成</text><line x1="1279.799" y1="1784.769" x2="1321.799" y2="1784.769" style="stroke:#475569;stroke-width:1;"/><line x1="1321.799" y1="1784.769" x2="1321.799" y2="1797.769" style="stroke:#475569;stroke-width:1;"/><line x1="1280.799" y1="1797.769" x2="1321.799" y2="1797.769" style="stroke:#475569;stroke-width:1;"/><polygon points="1290.799,1793.769,1280.799,1797.769,1290.799,1801.769,1286.799,1797.769" fill="#475569" style="stroke:#475569;stroke-width:1;stroke-linejoin:miter;stroke-miterlimit:10;"/><text x="1286.799" y="1779.025" fill="#000" font-size="13" textLength="216.619" font-family="Noto Sans CJK JP">全NED・JSON・layoutを公開・sync</text><line x1="1279.799" y1="1830.593" x2="1321.799" y2="1830.593" style="stroke:#475569;stroke-width:1;"/><line x1="1321.799" y1="1830.593" x2="1321.799" y2="1843.593" style="stroke:#475569;stroke-width:1;"/><line x1="1280.799" y1="1843.593" x2="1321.799" y2="1843.593" style="stroke:#475569;stroke-width:1;"/><polygon points="1290.799,1839.593,1280.799,1843.593,1290.799,1847.593,1286.799,1843.593" fill="#475569" style="stroke:#475569;stroke-width:1;stroke-linejoin:miter;stroke-miterlimit:10;"/><text x="1286.799" y="1824.849" fill="#000" font-size="13" textLength="226.434" font-family="Noto Sans CJK JP">INIを最後に公開・復旧記録更新・sync</text><polygon points="362.414,1872.417,352.414,1876.417,362.414,1880.417,358.414,1876.417" fill="#475569" style="stroke:#475569;stroke-width:1;stroke-linejoin:miter;stroke-miterlimit:10;"/><line x1="356.414" y1="1876.417" x2="1278.799" y2="1876.417" style="stroke:#475569;stroke-width:1;stroke-dasharray:2,2;"/><text x="368.414" y="1870.673" fill="#000" font-size="13" textLength="304.382" font-family="Noto Sans CJK JP">SaveReport（出力先・全体状態・ファイル別結果）</text><polygon points="645.528,1905.241,655.528,1909.241,645.528,1913.241,649.528,1909.241" fill="#475569" style="stroke:#475569;stroke-width:1;stroke-linejoin:miter;stroke-miterlimit:10;"/><line x1="351.414" y1="1909.241" x2="651.528" y2="1909.241" style="stroke:#475569;stroke-width:1;"/><text x="358.414" y="1903.497" fill="#000" font-size="13" textLength="282.113" font-family="Noto Sans CJK JP">SaveState反映（全体成功時だけ保存基準更新）</text><polygon points="1557.984,1938.065,1567.984,1942.065,1557.984,1946.065,1561.984,1942.065" fill="#475569" style="stroke:#475569;stroke-width:1;stroke-linejoin:miter;stroke-miterlimit:10;"/><line x1="351.414" y1="1942.065" x2="1563.984" y2="1942.065" style="stroke:#475569;stroke-width:1;"/><text x="358.414" y="1936.321" fill="#000" font-size="13" textLength="260" font-family="Noto Sans CJK JP">出力先・保存成功または部分失敗・復旧案内</text><line x1="335.414" y1="1951.065" x2="1585.984" y2="1951.065" style="stroke:#000;stroke-width:1;stroke-dasharray:2,2;"/><text x="340.414" y="1968.145" fill="#000" font-size="13" textLength="210.694" font-weight="700" font-family="Noto Sans CJK JP">[保存先の外部変更・未知内容あり]</text><polygon points="362.414,1995.713,352.414,1999.713,362.414,2003.713,358.414,1999.713" fill="#475569" style="stroke:#475569;stroke-width:1;stroke-linejoin:miter;stroke-miterlimit:10;"/><line x1="356.414" y1="1999.713" x2="1278.799" y2="1999.713" style="stroke:#475569;stroke-width:1;stroke-dasharray:2,2;"/><text x="368.414" y="1993.969" fill="#000" font-size="13" textLength="143" font-family="Noto Sans CJK JP">出力先競合（書込なし）</text><polygon points="1557.984,2028.537,1567.984,2032.537,1557.984,2036.537,1561.984,2032.537" fill="#475569" style="stroke:#475569;stroke-width:1;stroke-linejoin:miter;stroke-miterlimit:10;"/><line x1="351.414" y1="2032.537" x2="1563.984" y2="2032.537" style="stroke:#475569;stroke-width:1;"/><text x="358.414" y="2026.793" fill="#000" font-size="13" textLength="182" font-family="Noto Sans CJK JP">競合通知（内部モデルを維持）</text><line x1="316.414" y1="2055.537" x2="1610.984" y2="2055.537" style="stroke:#000;stroke-width:1;stroke-dasharray:2,2;"/><text x="321.414" y="2072.617" fill="#000" font-size="13" textLength="149.425" font-weight="700" font-family="Noto Sans CJK JP">[検証NG・対象版不一致]</text><polygon points="362.414,2100.185,352.414,2104.185,362.414,2108.185,358.414,2104.185" fill="#475569" style="stroke:#475569;stroke-width:1;stroke-linejoin:miter;stroke-miterlimit:10;"/><line x1="356.414" y1="2104.185" x2="1278.799" y2="2104.185" style="stroke:#475569;stroke-width:1;stroke-dasharray:2,2;"/><text x="368.414" y="2098.441" fill="#000" font-size="13" textLength="296.92" font-family="Noto Sans CJK JP">保存拒否 / 診断（ファイル・復旧記録の書込なし）</text><polygon points="1557.984,2133.009,1567.984,2137.009,1557.984,2141.009,1561.984,2137.009" fill="#475569" style="stroke:#475569;stroke-width:1;stroke-linejoin:miter;stroke-miterlimit:10;"/><line x1="351.414" y1="2137.009" x2="1563.984" y2="2137.009" style="stroke:#475569;stroke-width:1;"/><text x="358.414" y="2131.265" fill="#000" font-size="13" textLength="78" font-family="Noto Sans CJK JP">出力検証結果</text><path d="M616.944,2164.009 L616.944,2230.009 L1319.944,2230.009 L1319.944,2174.009 L1309.944,2164.009 L616.944,2164.009" style="stroke:#181818;stroke-width:0.5;" fill="#FFFBEA"/><path d="M1309.944,2164.009 L1309.944,2174.009 L1319.944,2174.009 L1309.944,2164.009" style="stroke:#181818;stroke-width:0.5;" fill="#FFFBEA"/><text x="760.59" y="2184.089" fill="#000" font-size="13" textLength="182" font-family="Noto Sans CJK JP">部分公開を全体成功にしない。</text><text x="760.59" y="2202.913" fill="#000" font-size="13" textLength="377" font-family="Noto Sans CJK JP">保存中はモデル変更を停止し、未完了なら復旧記録を保持する。</text><text x="760.59" y="2221.737" fill="#000" font-size="13" textLength="407.147" font-family="Noto Sans CJK JP">元の変更・削除後も取得済みsnapshotから別フォルダへ出力できる。</text><?plantuml-src XLTRRzjM4dxdho3QXso0ND1jBjqy571gAr3IoaQqQL6WGC18TCn69hqY5JVx95AHBLyKEKdZIwp4byYrubHklRcfigtycAD3Ia_v2pjp3abHb882XYoHSsQ-cVdcSaw8mreYCochnYNnp9cpy6TeMae_gyh9qt9ICRJqsTZ8iFkrTVZ4tbsrr-jd9fF22J4k9mn5Ko-9pljgPts6c0l4ccjzU4PhgyHi4dENcFl4UazoHyGw8BdNnFeBJerbqbEQBbyIwOCDUtbsIZ8I4o3eR3Ve_bEIDPsvGkiG51JRko_ivqlmn5DPfPK3-ycAlMQ1F6s-j5VGWltM9DOYiHuvbGOnrmH1lwEeKr9QcXHlIOaxjzDQHar-ewMqj3WzeHXou7rI7fSoAIEYgKPCcfJ5c6PeObnITV6RgzV4gsE3HUFAVsNnYoy3B_K9AQbDA-fjSLnAwK4BG-cqDisDVtxkuldp5_uLU0cVXf9GfYJLk1n2-lb8978X4lc4i9PEocbNyCAvY-U-kXmGL3L3xbCNYKGkZmm9Wg4OATdBL-xGhfJRrIFuueLudyx-vYpDT3PdFXuLsjLQkrgmjmeVZ-O48G10_EpoFyKRKPhVeVFhducI3Zz2xo-AzkDYwxZil3sm5tvdCaDZOo6XBqMIsoQvMP9xnII-6nqU-JOaSrvqUU2XvRfYGz_-68_6Gy9VWC8dnDeYLWLq1l15eh6GwBbUqTc6BpfwuzyXsGkYy-jXvzbsGEhxwCWFWd0ZAfx-6XqJBucZKx8gdXMloobDIWhu35w1NNZ5WT3iMlj56OXAIykqkIBWEr_arZr3ri77ITcGaf8XSHdQN2Gc-54bkH8MK6uEi8A6H0ego5FWnKBqIafNfIbzGZEmE7ONu06FeE0BdlRDWf-wxBnTif-N0Nkxsh2NQuAKCW1obQCEAHcz9eZix6dVyLwZg8P9SgqWxOQ29HV4M_KiCC9PE-mi_WySfZFvJgxgyu0kBdUFO93X1DZlP3UH0FTBzE5hbxJc7tPvZ-w3xMD1XgeJWp1ZLpoOdyY1i_d6Vd6_pvVsNgtTFE9zfXkGC23-62h4Njd6il700oRdNSrUDB5WP3NPIn2w_fhNn3yIskIaf2PlAibJqADq-MPQlgleq4fF2g5WEQKcBLUX9MAaM9pXY_DccnuzwHA92tUTQDMBj3Bd9SHJ6Q09wxa0n2vWMV6OkDf1QVwWattAYD7B6AwSdONG1AFjffhnveyc_L0cvYAc-Nu9XW0NX2TWpNcrq4y8twzElkWSmyHun2c2KL8Ca0_xPo__wGKCW43VonX-1FjonNiTAwHzo02ogBndFzXntZrrQdCuUERVsVa5JY4UwDOnud0z0NdcWCiSTAnerrvycXCqdmiI0Z9XhxyXvWenzuXvVo0plfTI2XIz3ASxEEwsQ3DFp2q_9UEfZ3vXrml4_83dm_4Bb6flwZ_1Zzw8GGZzseqE3s9BMWOso3Ud5MFYfgvbqWaP6AoEAxTFYOdfvAcVrBXxFegAurp2qtdov20MGGJfKOaMAZ3p0G34kdsm5Seaqedp7rF7FCJyc5MWHtlsJJ-HU6FWP8IesG-sd5-hVObAorBodiWMb0t8Z-_UkAIavAJF0oU_IvSAiIkiodT_rcvXfJ2OdcSGQuu4S-9RSMkzL85a-r3SRjEN-BXqLnxInzBQpx1AWQLMVHwsAzXza3Y57TukiEAt6-sz8irM-6OqW0HyW7E062MeuzaYs8V3VyE6mJp0f31vJZkVO_vWWodfEd1T_az6rX4-NSSTpXy_tbf1yuNeC7fHtGUd43mxtTN2voh9FOGDqIyxCEaDnMWiIaiMP8GlYz0WME_orGJ8Ye36KX9wC_BBb9OsujrX21fRnuyvIrhDPvtDem0rU-Se0mHcmJXG73rf5C0rx2HB48zTjqboweG6A_SfI4O0CuMOaifj25Ieu93cN7Zq6XZo7C1rTmcQrYfa4yTKRyGwPjsUVywwoWO72q76PlQomVlPHwYkZORTM7OXvmud97s2ymZKiLRjdNDUlMDUGNzQWNTznhXWIalSmRJyQK5LSIETpLMwiU4lu-tgAinqDpU3zEIhS9S07LVZep7ubvBkQHc3ZPpVEyiBIDLxQcBGISm457Gvwor4hdpGBdHP60pzIdgAxRgCd42g-a5ZJ0DUS9VWPyzUMDZXAUGrtjToK6VSWDPDIqLxTPErVqQomXATts0tbKrYFdJhW2M4umpfStjJ41K_mnNvtGfM9LgOuVk9xpziwB15WJhMk_oQmxnKbl447q5iyZaREo1Bz_yYfaMi-K5n2l426-1w7ROYJf31mBaeb0Jeno3qBdNO0Vsz262gRflbj8zTyLihtlsyhYhq0NCZil28BltcBsTWBPYm42bmU-q3FoZcmN9bVHglKQ9sLqxpN9_Yzm9HT3F06OZKxQORcEdFUPArG9WZRjLhaBhkYilJ0MVDibtRnYDPa-soYwt631wtvdfyW7xtuHb43swtn5hWcd7BmFowcQLpyvsr2bQ7PGNxTlSgW7TpO3EBrKiMg2mnwsxdnQjwqTKDphCxvFy1?></g></svg>