<svg xmlns="http://www.w3.org/2000/svg" xmlns:xlink="http://www.w3.org/1999/xlink" version="1.1" data-diagram-type="ACTIVITY" style="width:1061px;height:1008px;background:#FFFFFF;" width="1061px" height="1008px" viewBox="0 0 1061 1008" zoomAndPan="magnify" preserveAspectRatio="none" contentStyleType="text/css"><?plantuml 1.2026.8?><defs/><g font-family="sans-serif" lengthAdjust="spacing"><g class="title" data-source-line="13"><text x="406.917" y="36.24" fill="#000" font-size="14" textLength="245.436" font-weight="700" font-family="Noto Sans CJK JP">プロジェクト一式の保存（詳細設計）</text></g><ellipse cx="714.204" cy="66.272" rx="10" ry="10" fill="#222" style="stroke:#222;stroke-width:1;"/><rect x="586.372" y="96.272" width="255.664" height="57.648" fill="#EFF6FF" style="stroke:#64748B;stroke-width:0.5;" rx="12.5" ry="12.5"/><text x="596.372" y="121.352" fill="#000" font-size="13" textLength="235.664" font-family="Noto Sans CJK JP">B7で原文flushのack・版・保存先を確認</text><text x="596.372" y="140.176" fill="#000" font-size="13" textLength="173.147" font-family="Noto Sans CJK JP">変更を停止しsnapshotを凍結</text><rect x="569.42" y="173.92" width="289.568" height="38.824" fill="#EFF6FF" style="stroke:#64748B;stroke-width:0.5;" rx="12.5" ry="12.5"/><text x="579.42" y="199" fill="#000" font-size="13" textLength="269.568" font-family="Noto Sans CJK JP">B4で出力対応・INI参照patch・全bytesを計画</text><rect x="597.448" y="232.744" width="233.512" height="38.824" fill="#EFF6FF" style="stroke:#64748B;stroke-width:0.5;" rx="12.5" ry="12.5"/><text x="607.448" y="257.824" fill="#000" font-size="13" textLength="213.512" font-family="Noto Sans CJK JP">B5でExportSnapshotを全体prepare</text><polygon points="636.068,291.568,792.341,291.568,804.341,303.568,792.341,315.568,636.068,315.568,624.068,303.568,636.068,291.568" fill="#EFF6FF" style="stroke:#64748B;stroke-width:0.5;stroke-linejoin:miter;stroke-miterlimit:10;"/><text x="636.068" y="309.236" fill="#000" font-size="13" textLength="156.273" font-family="Noto Sans CJK JP">検証OK・plan digest一致?</text><text x="598.068" y="299.824" fill="#000" font-size="13" textLength="26" font-family="Noto Sans CJK JP">はい</text><text x="804.341" y="299.824" fill="#000" font-size="13" textLength="39" font-family="Noto Sans CJK JP">いいえ</text><rect x="393.638" y="325.568" width="189" height="57.648" fill="#EFF6FF" style="stroke:#64748B;stroke-width:0.5;" rx="12.5" ry="12.5"/><text x="403.638" y="350.648" fill="#000" font-size="13" textLength="169" font-family="Noto Sans CJK JP">選択した出力先の基準を確認</text><text x="403.638" y="369.472" fill="#000" font-size="13" textLength="142.376" font-family="Noto Sans CJK JP">出力lock取得後に再確認</text><polygon points="385.964,403.216,590.312,403.216,602.312,415.216,590.312,427.216,385.964,427.216,373.964,415.216,385.964,403.216" fill="#EFF6FF" style="stroke:#64748B;stroke-width:0.5;stroke-linejoin:miter;stroke-miterlimit:10;"/><text x="385.964" y="420.884" fill="#000" font-size="13" textLength="204.347" font-family="Noto Sans CJK JP">許可・確認値・hash・集合が一致?</text><text x="347.964" y="411.472" fill="#000" font-size="13" textLength="26" font-family="Noto Sans CJK JP">はい</text><text x="602.312" y="411.472" fill="#000" font-size="13" textLength="39" font-family="Noto Sans CJK JP">いいえ</text><rect x="138.516" y="437.216" width="284.979" height="57.648" fill="#EFF6FF" style="stroke:#64748B;stroke-width:0.5;" rx="12.5" ry="12.5"/><text x="148.516" y="462.296" fill="#000" font-size="13" textLength="264.979" font-family="Noto Sans CJK JP">before/after blobs・target登録・manifestを</text><text x="148.516" y="481.12" fill="#000" font-size="13" textLength="118.417" font-family="Noto Sans CJK JP">専用状態領域でsync</text><rect x="171.952" y="514.864" width="218.107" height="57.648" fill="#EFF6FF" style="stroke:#64748B;stroke-width:0.5;" rx="12.5" ry="12.5"/><text x="181.952" y="539.944" fill="#000" font-size="13" textLength="198.107" font-family="Noto Sans CJK JP">出力directory・一時ファイル作成</text><text x="181.952" y="558.768" fill="#000" font-size="13" textLength="193.869" font-family="Noto Sans CJK JP">mode確定・manifest更新をsync</text><rect x="137.288" y="592.512" width="287.436" height="57.648" fill="#EFF6FF" style="stroke:#64748B;stroke-width:0.5;" rx="12.5" ry="12.5"/><text x="147.288" y="617.592" fill="#000" font-size="13" textLength="236.691" font-family="Noto Sans CJK JP">NED → JSON → layout → INIの順に公開</text><text x="147.288" y="636.416" fill="#000" font-size="13" textLength="267.436" font-family="Noto Sans CJK JP">各公開前の照合・親directory sync・記録更新</text><polygon points="160.925,670.16,401.087,670.16,413.087,682.16,401.087,694.16,160.925,694.16,148.925,682.16,160.925,670.16" fill="#EFF6FF" style="stroke:#64748B;stroke-width:0.5;stroke-linejoin:miter;stroke-miterlimit:10;"/><text x="160.925" y="687.828" fill="#000" font-size="13" textLength="240.162" font-family="Noto Sans CJK JP">全対象の公開・完成記録の耐久化に成功?</text><text x="122.925" y="678.416" fill="#000" font-size="13" textLength="26" font-family="Noto Sans CJK JP">はい</text><text x="413.087" y="678.416" fill="#000" font-size="13" textLength="39" font-family="Noto Sans CJK JP">いいえ</text><rect x="16" y="704.16" width="245.849" height="57.648" fill="#EFF6FF" style="stroke:#64748B;stroke-width:0.5;" rx="12.5" ry="12.5"/><text x="26" y="729.24" fill="#000" font-size="13" textLength="225.849" font-family="Noto Sans CJK JP">completed manifestと出力基準を確定</text><text x="26" y="748.064" fill="#000" font-size="13" textLength="176.982" font-family="Noto Sans CJK JP">B7がcheckpointとdirtyを更新</text><rect x="83.425" y="781.808" width="111" height="38.824" fill="#EFF6FF" style="stroke:#64748B;stroke-width:0.5;" rx="12.5" ry="12.5"/><text x="93.425" y="806.888" fill="#000" font-size="13" textLength="91" font-family="Noto Sans CJK JP">全体成功を表示</text><rect x="294.904" y="704.16" width="256.366" height="57.648" fill="#EFF6FF" style="stroke:#64748B;stroke-width:0.5;" rx="12.5" ry="12.5"/><text x="304.904" y="729.24" fill="#000" font-size="13" textLength="150.891" font-family="Noto Sans CJK JP">recovery_requiredを保持</text><text x="304.904" y="748.064" fill="#000" font-size="13" textLength="236.366" font-family="Noto Sans CJK JP">現bytesとbefore/afterを照合する復旧へ</text><polygon points="281.006,826.632,293.006,838.632,281.006,850.632,269.006,838.632,281.006,826.632" fill="#EFF6FF" style="stroke:#64748B;stroke-width:0.5;stroke-linejoin:miter;stroke-miterlimit:10;"/><rect x="581.27" y="437.216" width="228" height="57.648" fill="#EFF6FF" style="stroke:#64748B;stroke-width:0.5;" rx="12.5" ry="12.5"/><text x="591.27" y="462.296" fill="#000" font-size="13" textLength="104" font-family="Noto Sans CJK JP">競合・許可エラー</text><text x="591.27" y="481.12" fill="#000" font-size="13" textLength="208" font-family="Noto Sans CJK JP">出力を書き換えず内部モデルを維持</text><polygon points="488.138,856.632,500.138,868.632,488.138,880.632,476.138,868.632,488.138,856.632" fill="#EFF6FF" style="stroke:#64748B;stroke-width:0.5;stroke-linejoin:miter;stroke-miterlimit:10;"/><rect x="839.27" y="325.568" width="202" height="57.648" fill="#EFF6FF" style="stroke:#64748B;stroke-width:0.5;" rx="12.5" ry="12.5"/><text x="849.27" y="350.648" fill="#000" font-size="13" textLength="91" font-family="Noto Sans CJK JP">検証診断を表示</text><text x="849.27" y="369.472" fill="#000" font-size="13" textLength="182" font-family="Noto Sans CJK JP">出力・復旧記録を書き込まない</text><polygon points="714.204,886.632,726.204,898.632,714.204,910.632,702.204,898.632,714.204,886.632" fill="#EFF6FF" style="stroke:#64748B;stroke-width:0.5;stroke-linejoin:miter;stroke-miterlimit:10;"/><path d="M745.204,920.632 L745.204,949.868 L725.204,953.868 L745.204,957.868 L745.204,987.104 A0,0 0 0 0 745.204,987.104 L1013.204,987.104 A0,0 0 0 0 1013.204,987.104 L1013.204,930.632 L1003.204,920.632 L745.204,920.632 A0,0 0 0 0 745.204,920.632" style="stroke:#181818;stroke-width:0.5;" fill="#FEFFDD"/><path d="M1003.204,920.632 L1003.204,930.632 L1013.204,930.632 L1003.204,920.632" style="stroke:#181818;stroke-width:0.5;" fill="#FEFFDD"/><text x="751.204" y="940.712" fill="#000" font-size="13" textLength="239.551" font-family="Noto Sans CJK JP">公開前のI/O失敗は元の出力を維持する。</text><text x="751.204" y="959.536" fill="#000" font-size="13" textLength="247" font-family="Noto Sans CJK JP">未完了記録が残れば復旧調査を優先する。</text><text x="751.204" y="978.36" fill="#000" font-size="13" textLength="210.756" font-family="Noto Sans CJK JP">保存後にB1で読込元を照合しない。</text><ellipse cx="714.204" cy="953.868" rx="11" ry="11" fill="none" style="stroke:#222;stroke-width:1;"/><ellipse cx="714.204" cy="953.868" rx="6" ry="6" fill="#222" style="stroke:#222;stroke-width:1;"/><line x1="714.204" y1="76.272" x2="714.204" y2="96.272" style="stroke:#475569;stroke-width:1;"/><polygon points="710.204,86.272,714.204,96.272,718.204,86.272,714.204,90.272" fill="#475569" style="stroke:#475569;stroke-width:1;stroke-linejoin:miter;stroke-miterlimit:10;"/><line x1="714.204" y1="153.92" x2="714.204" y2="173.92" style="stroke:#475569;stroke-width:1;"/><polygon points="710.204,163.92,714.204,173.92,718.204,163.92,714.204,167.92" fill="#475569" style="stroke:#475569;stroke-width:1;stroke-linejoin:miter;stroke-miterlimit:10;"/><line x1="714.204" y1="212.744" x2="714.204" y2="232.744" style="stroke:#475569;stroke-width:1;"/><polygon points="710.204,222.744,714.204,232.744,718.204,222.744,714.204,226.744" fill="#475569" style="stroke:#475569;stroke-width:1;stroke-linejoin:miter;stroke-miterlimit:10;"/><line x1="281.006" y1="494.864" x2="281.006" y2="514.864" style="stroke:#475569;stroke-width:1;"/><polygon points="277.006,504.864,281.006,514.864,285.006,504.864,281.006,508.864" fill="#475569" style="stroke:#475569;stroke-width:1;stroke-linejoin:miter;stroke-miterlimit:10;"/><line x1="281.006" y1="572.512" x2="281.006" y2="592.512" style="stroke:#475569;stroke-width:1;"/><polygon points="277.006,582.512,281.006,592.512,285.006,582.512,281.006,586.512" fill="#475569" style="stroke:#475569;stroke-width:1;stroke-linejoin:miter;stroke-miterlimit:10;"/><line x1="138.925" y1="761.808" x2="138.925" y2="781.808" style="stroke:#475569;stroke-width:1;"/><polygon points="134.925,771.808,138.925,781.808,142.925,771.808,138.925,775.808" fill="#475569" style="stroke:#475569;stroke-width:1;stroke-linejoin:miter;stroke-miterlimit:10;"/><line x1="148.925" y1="682.16" x2="138.925" y2="682.16" style="stroke:#475569;stroke-width:1;"/><line x1="138.925" y1="682.16" x2="138.925" y2="704.16" style="stroke:#475569;stroke-width:1;"/><polygon points="134.925,694.16,138.925,704.16,142.925,694.16,138.925,698.16" fill="#475569" style="stroke:#475569;stroke-width:1;stroke-linejoin:miter;stroke-miterlimit:10;"/><line x1="413.087" y1="682.16" x2="423.087" y2="682.16" style="stroke:#475569;stroke-width:1;"/><line x1="423.087" y1="682.16" x2="423.087" y2="704.16" style="stroke:#475569;stroke-width:1;"/><polygon points="419.087,694.16,423.087,704.16,427.087,694.16,423.087,698.16" fill="#475569" style="stroke:#475569;stroke-width:1;stroke-linejoin:miter;stroke-miterlimit:10;"/><line x1="138.925" y1="820.632" x2="138.925" y2="838.632" style="stroke:#475569;stroke-width:1;"/><line x1="138.925" y1="838.632" x2="269.006" y2="838.632" style="stroke:#475569;stroke-width:1;"/><polygon points="259.006,834.632,269.006,838.632,259.006,842.632,263.006,838.632" fill="#475569" style="stroke:#475569;stroke-width:1;stroke-linejoin:miter;stroke-miterlimit:10;"/><line x1="423.087" y1="761.808" x2="423.087" y2="838.632" style="stroke:#475569;stroke-width:1;"/><line x1="423.087" y1="838.632" x2="293.006" y2="838.632" style="stroke:#475569;stroke-width:1;"/><polygon points="303.006,834.632,293.006,838.632,303.006,842.632,299.006,838.632" fill="#475569" style="stroke:#475569;stroke-width:1;stroke-linejoin:miter;stroke-miterlimit:10;"/><line x1="281.006" y1="650.16" x2="281.006" y2="670.16" style="stroke:#475569;stroke-width:1;"/><polygon points="277.006,660.16,281.006,670.16,285.006,660.16,281.006,664.16" fill="#475569" style="stroke:#475569;stroke-width:1;stroke-linejoin:miter;stroke-miterlimit:10;"/><line x1="373.964" y1="415.216" x2="281.006" y2="415.216" style="stroke:#475569;stroke-width:1;"/><line x1="281.006" y1="415.216" x2="281.006" y2="437.216" style="stroke:#475569;stroke-width:1;"/><polygon points="277.006,427.216,281.006,437.216,285.006,427.216,281.006,431.216" fill="#475569" style="stroke:#475569;stroke-width:1;stroke-linejoin:miter;stroke-miterlimit:10;"/><line x1="602.312" y1="415.216" x2="695.27" y2="415.216" style="stroke:#475569;stroke-width:1;"/><line x1="695.27" y1="415.216" x2="695.27" y2="437.216" style="stroke:#475569;stroke-width:1;"/><polygon points="691.27,427.216,695.27,437.216,699.27,427.216,695.27,431.216" fill="#475569" style="stroke:#475569;stroke-width:1;stroke-linejoin:miter;stroke-miterlimit:10;"/><line x1="281.006" y1="850.632" x2="281.006" y2="868.632" style="stroke:#475569;stroke-width:1;"/><line x1="281.006" y1="868.632" x2="476.138" y2="868.632" style="stroke:#475569;stroke-width:1;"/><polygon points="466.138,864.632,476.138,868.632,466.138,872.632,470.138,868.632" fill="#475569" style="stroke:#475569;stroke-width:1;stroke-linejoin:miter;stroke-miterlimit:10;"/><line x1="695.27" y1="494.864" x2="695.27" y2="868.632" style="stroke:#475569;stroke-width:1;"/><line x1="695.27" y1="868.632" x2="500.138" y2="868.632" style="stroke:#475569;stroke-width:1;"/><polygon points="510.138,864.632,500.138,868.632,510.138,872.632,506.138,868.632" fill="#475569" style="stroke:#475569;stroke-width:1;stroke-linejoin:miter;stroke-miterlimit:10;"/><line x1="488.138" y1="383.216" x2="488.138" y2="403.216" style="stroke:#475569;stroke-width:1;"/><polygon points="484.138,393.216,488.138,403.216,492.138,393.216,488.138,397.216" fill="#475569" style="stroke:#475569;stroke-width:1;stroke-linejoin:miter;stroke-miterlimit:10;"/><line x1="624.068" y1="303.568" x2="488.138" y2="303.568" style="stroke:#475569;stroke-width:1;"/><line x1="488.138" y1="303.568" x2="488.138" y2="325.568" style="stroke:#475569;stroke-width:1;"/><polygon points="484.138,315.568,488.138,325.568,492.138,315.568,488.138,319.568" fill="#475569" style="stroke:#475569;stroke-width:1;stroke-linejoin:miter;stroke-miterlimit:10;"/><line x1="804.341" y1="303.568" x2="940.27" y2="303.568" style="stroke:#475569;stroke-width:1;"/><line x1="940.27" y1="303.568" x2="940.27" y2="325.568" style="stroke:#475569;stroke-width:1;"/><polygon points="936.27,315.568,940.27,325.568,944.27,315.568,940.27,319.568" fill="#475569" style="stroke:#475569;stroke-width:1;stroke-linejoin:miter;stroke-miterlimit:10;"/><line x1="488.138" y1="880.632" x2="488.138" y2="898.632" style="stroke:#475569;stroke-width:1;"/><line x1="488.138" y1="898.632" x2="702.204" y2="898.632" style="stroke:#475569;stroke-width:1;"/><polygon points="692.204,894.632,702.204,898.632,692.204,902.632,696.204,898.632" fill="#475569" style="stroke:#475569;stroke-width:1;stroke-linejoin:miter;stroke-miterlimit:10;"/><line x1="940.27" y1="383.216" x2="940.27" y2="898.632" style="stroke:#475569;stroke-width:1;"/><line x1="940.27" y1="898.632" x2="726.204" y2="898.632" style="stroke:#475569;stroke-width:1;"/><polygon points="736.204,894.632,726.204,898.632,736.204,902.632,732.204,898.632" fill="#475569" style="stroke:#475569;stroke-width:1;stroke-linejoin:miter;stroke-miterlimit:10;"/><line x1="714.204" y1="271.568" x2="714.204" y2="291.568" style="stroke:#475569;stroke-width:1;"/><polygon points="710.204,281.568,714.204,291.568,718.204,281.568,714.204,285.568" fill="#475569" style="stroke:#475569;stroke-width:1;stroke-linejoin:miter;stroke-miterlimit:10;"/><line x1="714.204" y1="910.632" x2="714.204" y2="942.868" style="stroke:#475569;stroke-width:1;"/><polygon points="710.204,932.868,714.204,942.868,718.204,932.868,714.204,936.868" fill="#475569" style="stroke:#475569;stroke-width:1;stroke-linejoin:miter;stroke-miterlimit:10;"/><?plantuml-src TLHTJnj757tthnWf3qaU0ergGciUgX90WaWGYLUaQl6EyGfxnzqTXxfFtZKs1aoDKZ0Gt3fGMXPJyv5Iv1h7_9UEPxr-ob_edLqRLXMHLjPuvjvxpZttup4Q8-5a7AiqX0O61k6ZXCJqGHNBpx2iKA8DJe-FzOxjcstxUDVUhm_4vS1ZD8l3L25g24sFFnlx8eX6WymuirVJTdcLPLPOfidCMsPOxTjVU6sNPt_dnT_0wtLIIn0TXn1VQV2r_KHCKeNRKTcncYnjEEdDzZzPNYZ1cMV_x9RM8KGtlTMkr_ZHfRsz0yOyd-CVDfdvjdFKOCPU8A0lAcf2qgGucfV2YmiQIQhoIn8Z6bgAAXJxtcKSaP8nEa5KEYt5CPecbA1PITNHowbNQEhrmwQpoeyOFV_IzwX79PaiAUe2YaWntO_mhQQH9G_yKN1uQEZ5rxv72HHxez3KwFzeFXgVc7WnCV6G9T5ahFMiNWI7Wr-D1W9KeJ6CM6Q7PMhCh3Fpc9ddB9DlrzEyMGI5FCq_DVFEoL-Tgml7gZbM_bDp5QIYaaO3eT5XPXppdofsQIKII-fHy05AB7FJMSt3RxzcUI7oOSEfRiof_6ZLth-22swKxTeXCtPqLKheKKB5tSf6v-_D4GWS587TqlBp5hyjGxJ9wKbUD3lPuuH4mr6uu5bhFaMn3ex0gxDr8no7m77yXmJHwAmlRjPgV_mveM5G1Oy4b0XwuhNAp2k88ve7oSe2rYcaxgnSVVCKqIXMqHDcd3DZ-Ma0eL3NgDjhlm9TPbHwn20lwA9AmswK_0cwZp4INkJ54c_jy5Q16QSyj-4PZ40mWUzObxnuBgHohtdw2CvHIHU9TVTpV1E25pvB1mZDumZHyA0KeLX3yp4ohuCdb6K1qyxUJRVm0Vx69LM9G5f03uXTc9qjgxDsRMVNk-ztUQK2KkafDJpY1VI8oue60qcqbAXVFMtlcIoppSm3PWB1q_R7iftVd5FZHCP0d9-zyw50NUtI1M3vWiBOetzpRz7KxCoqUuX9APAaxX4A2W9st-U4FkwG0idDPU_8LpVW4QejbCZSE7zKxvWX4L_SMRkGfeVgmGbXeTRGCixbWIYED_hGAcS5uEqvmFtzUZ1EuPwlLHxK6FY7IJmHmnJBw4vBm-hLtrTv469E5TDG24TnU35155KO0cMQ0Wi_Hw6qsuuUi6ZU0mjMaFUAOGq84ilkbx_Z0QcJDrXBVQVXxvCWX0n-C5vsmPXJEyMMDmU6vMyAmSoJpzXZvZfldTWxnyoezu1KMOa4FWCOwfnUztJtsjIqMEO4Td6_lTsSwipOi8lxuCMCTpoNxMR0wj1TsgS2_Be6z0IQX_K0KiYRGiTgsANQdH9t850tbtIlRdrCfzLaHeiPLGWq4l22wvGa0YgX66dAGfH2R7yRJGxEzDV-ESzcH6Vqq_1OUXAnj0cEThaAxT9kvFhjKh3Frfa9KtpHerEzjIitOgqiLzqbSE_RstZko8y-X_bogZMWAp3lgx7ZKHSUG1u9rly1?></g></svg>