<svg xmlns="http://www.w3.org/2000/svg" xmlns:xlink="http://www.w3.org/1999/xlink" version="1.1" data-diagram-type="CLASS" style="width:673px;height:309px;background:#FFFFFF;" width="673px" height="309px" viewBox="0 0 673 309" zoomAndPan="magnify" preserveAspectRatio="none" contentStyleType="text/css"><?plantuml 1.2026.8?><defs/><g font-family="sans-serif" lengthAdjust="spacing"><g class="title" data-source-line="25"><text x="203.479" y="26.24" fill="#000" font-size="14" textLength="259.258" font-weight="700" font-family="Noto Sans CJK JP">ASTとModel IRが保持する情報（概念）</text></g><!--class ast--><g class="entity" data-qualified-name="ast" id="ent0001" data-source-line="29"><rect x="7" y="58.272" width="161.589" height="139.631" fill="#EFF6FF" style="stroke:#64748B;stroke-width:0.5;" rx="4" ry="4"/><ellipse cx="51.089" cy="83.544" rx="10" ry="10" fill="#ADD1B2" style="stroke:#181818;stroke-width:1;"/><path d="M53.479,88.247 Q52.995,88.497 52.464,88.622 Q51.948,88.747 51.37,88.747 Q49.308,88.747 48.214,87.388 Q47.136,86.028 47.136,83.45 Q47.136,80.872 48.214,79.513 Q49.308,78.153 51.37,78.153 Q51.948,78.153 52.479,78.278 Q53.011,78.403 53.479,78.638 L53.479,80.888 Q52.964,80.403 52.464,80.184 Q51.979,79.966 51.464,79.966 Q50.354,79.966 49.792,80.841 Q49.229,81.716 49.229,83.45 Q49.229,85.169 49.792,86.059 Q50.354,86.934 51.464,86.934 Q51.979,86.934 52.464,86.716 Q52.964,86.481 53.479,86.013 L53.479,88.247 Z " fill="#000"/><text x="68.089" y="79.512" fill="#000" font-size="14" textLength="69.412" font-style="italic" font-family="Noto Sans CJK JP">«構文表現»</text><text x="90.174" y="99.784" fill="#000" font-size="14" textLength="25.242" font-family="Noto Sans CJK JP">AST</text><line x1="8" y1="108.816" x2="167.589" y2="108.816" style="stroke:#64748B;stroke-width:0.5;"/><text x="13" y="129.056" fill="#000" font-size="14" textLength="132.999" font-family="Noto Sans CJK JP">package declaration</text><text x="13" y="149.328" fill="#000" font-size="14" textLength="134.945" font-family="Noto Sans CJK JP">module declarations</text><text x="13" y="169.599" fill="#000" font-size="14" textLength="149.589" font-family="Noto Sans CJK JP">textual type references</text><text x="13" y="189.871" fill="#000" font-size="14" textLength="149.323" font-family="Noto Sans CJK JP">parameter expressions</text></g><!--class ir--><g class="entity" data-qualified-name="ir" id="ent0002" data-source-line="35"><rect x="394.5" y="48.272" width="211.443" height="159.903" fill="#EFF6FF" style="stroke:#64748B;stroke-width:0.5;" rx="4" ry="4"/><ellipse cx="435.516" cy="73.544" rx="10" ry="10" fill="#ADD1B2" style="stroke:#181818;stroke-width:1;"/><path d="M437.906,78.247 Q437.422,78.497 436.891,78.622 Q436.375,78.747 435.797,78.747 Q433.735,78.747 432.641,77.388 Q431.563,76.028 431.563,73.45 Q431.563,70.872 432.641,69.513 Q433.735,68.153 435.797,68.153 Q436.375,68.153 436.906,68.278 Q437.438,68.403 437.906,68.638 L437.906,70.888 Q437.391,70.403 436.891,70.184 Q436.406,69.966 435.891,69.966 Q434.781,69.966 434.219,70.841 Q433.656,71.716 433.656,73.45 Q433.656,75.169 434.219,76.059 Q434.781,76.934 435.891,76.934 Q436.406,76.934 436.891,76.716 Q437.391,76.481 437.906,76.013 L437.906,78.247 Z " fill="#000"/><text x="452.516" y="69.512" fill="#000" font-size="14" textLength="125.411" font-style="italic" font-family="Noto Sans CJK JP">«正規化したモデル»</text><text x="487.026" y="89.784" fill="#000" font-size="14" textLength="56.392" font-family="Noto Sans CJK JP">Model IR</text><line x1="395.5" y1="98.816" x2="604.943" y2="98.816" style="stroke:#64748B;stroke-width:0.5;"/><text x="400.5" y="119.056" fill="#000" font-size="14" textLength="134.903" font-family="Noto Sans CJK JP">resolved type names</text><text x="400.5" y="139.328" fill="#000" font-size="14" textLength="158.745" font-family="Noto Sans CJK JP">explicit Node definitions</text><text x="400.5" y="159.599" fill="#000" font-size="14" textLength="151.759" font-family="Noto Sans CJK JP">explicit Port definitions</text><text x="400.5" y="179.871" fill="#000" font-size="14" textLength="146.509" font-family="Noto Sans CJK JP">validated Connections</text><text x="400.5" y="200.143" fill="#000" font-size="14" textLength="199.443" font-family="Noto Sans CJK JP">resolved default ParameterSet</text></g><g class="entity" data-qualified-name="GMN4" id="ent0005" data-source-line="44"><path d="M342,247.772 L342,290.316 A4,4 0 0 0 346,294.316 L654.217,294.316 A4,4 0 0 0 658.217,290.316 L658.217,253.772 L648.217,243.772 L504,243.772 L500,208.502 L496,243.772 L346,243.772 A4,4 0 0 0 342,247.772" style="stroke:#D6C77A;stroke-width:0.5;" fill="#FFFBEA"/><path d="M648.217,243.772 L648.217,251.772 A2,2 0 0 0 650.217,253.772 L658.217,253.772 L648.217,243.772" style="stroke:#D6C77A;stroke-width:0.5;" fill="#FFFBEA"/><text x="348" y="265.012" fill="#000" font-size="14" textLength="263.409" font-family="Noto Sans CJK JP">RuntimeはASTではなくModel IRを使う。</text><text x="348" y="285.284" fill="#000" font-size="14" textLength="295.217" font-family="Noto Sans CJK JP">具体的なRustの型定義を確定する図ではない。</text></g><!--link ast to ir--><g class="link" data-entity-1="ent0001" data-entity-2="ent0002" id="lnk3" data-source-line="42" data-link-type="dependency"><path d="M169.03,128.272 C233.35,128.272 319.21,128.272 389.3,128.272" style="stroke:#475569;stroke-width:1;" fill="none" id="ast-to-ir" codeLine="42"/><polygon points="394.3,128.272,385.3,124.272,389.3,128.272,385.3,132.272,394.3,128.272" fill="#475569" style="stroke:#475569;stroke-width:1;stroke-linejoin:miter;stroke-miterlimit:10;"/><text x="200" y="123.512" fill="#000" font-size="14" textLength="112" font-family="Noto Sans CJK JP">意味検証・正規化</text></g><?plantuml-src bLHRJnD157xVNp611vx064jR6aBIsoQYaeRw1uRkj9smEzFCJhbeJDoMcu6aKHECu0N1GCKKOeZHQ84VC_JY4t_1irjALgoAoJnCvdpdEz-vpG1Ay4pH8an6qD3G3JYgjAtATLMggVAIAXsgigFAE-rghLrTQMv-7R8CRG2bIKPIpY9e8fbGpa5xlzO-gIldL3dLvjxgZyTRpVUlsjKw85D5KU0sYQ1e-ZvOxt63cEZsf7BMpavVDzSSvRnKfTLcUR6nzUcyljBSBJLEFv_NdsYQFKrP0GjieIcScSu9NcH6d9jSeDaybSHdDqWM5qsfSoOdi4NG19SSfJ6pKNpy3XfFzOQcwGE2RWPyHZkF3JvBMGvbiMdx8tZ1Crmm8b3OznuLWizsHFK7GiF3mH6VyIvbv4-s3BSAd47LqtBU94X0FJ7BcQGN97Ob_VwahWTrlIUK2uE82rWm40g4OpuOXgRDK3d_Ry9BvBNu4XHRd1c_qUgw7aecV0wCIz8B5Kj6hwByWHF1U2ZaHsHCRDlNA8i7-siA1I31kHwYmdfKZ_S0-jb60j5RiR2cIIgXX_yzu2R9IWIJAcWkBv51HMUfj3mr2BA8p7F3rhmSK1-Gzo5imv5eT1HshBc-t7vNRLLEniRGGmrrzS60WuV07X525ZUAvY-FDhnACYUBs4Holk2ENfO8mZB4zbWWLo9XoibSGH3RzZmUTLLqa_EaKE4ggUsqTokDjNNbl53EMrM6lsDPbJzUg08ARiuGenEA0RSR1RXDcg4I5jLmnMKferrjbxOK5_AARGQRrC0IwEASiKwrR7-KY-r6gMuQQI91lLkqmS4nLt44DHSgZQT7dVz9bRzV9g2vOuUck9JSGZmBO62UB399BQASGw-xUt1HphvoAfTjBZqxEuPlRqazBW6-iVZbxFXvQsC1K9D5MyBVs7YpsZZOQ9ry06Xh-nlSEnFHs3po4Iwu_eGPtl3_1000?></g></svg>