<svg xmlns="http://www.w3.org/2000/svg" xmlns:xlink="http://www.w3.org/1999/xlink" version="1.1" data-diagram-type="DESCRIPTION" style="width:570px;height:1324px;background:#FFFFFF;" width="570px" height="1324px" viewBox="0 0 570 1324" zoomAndPan="magnify" preserveAspectRatio="none" contentStyleType="text/css"><?plantuml 1.2026.8?><defs/><g font-family="sans-serif" lengthAdjust="spacing"><g class="title" data-source-line="25"><text x="108.386" y="26.24" fill="#000" font-size="14" textLength="346.499" font-weight="700" font-family="Noto Sans CJK JP">モデル定義からシミュレーション結果まで（設計案）</text></g><!--entity ned--><g class="entity" data-qualified-name="ned" id="ent0001" data-source-line="28"><rect x="7" y="48.272" width="142" height="63.544" fill="#F1F1F1" style="stroke:#181818;stroke-width:0.5;" rx="4" ry="4"/><polygon points="132,53.272,132,67.272,144,67.272,144,59.272,138,53.272,132,53.272" fill="#F1F1F1" style="stroke:#181818;stroke-width:0.5;stroke-linejoin:miter;stroke-miterlimit:10;"/><line x1="138" y1="53.272" x2="138" y2="59.272" style="stroke:#181818;stroke-width:0.5;"/><line x1="144" y1="59.272" x2="138" y2="59.272" style="stroke:#181818;stroke-width:0.5;"/><text x="17" y="77.512" fill="#000" font-size="14" textLength="28" font-family="Noto Sans CJK JP">NED</text><text x="17" y="97.784" fill="#000" font-size="14" textLength="112" font-family="Noto Sans CJK JP">構造・型・既定値</text></g><!--entity parser--><g class="entity" data-qualified-name="parser" id="ent0002" data-source-line="29"><rect x="23.5" y="172.272" width="109.194" height="40.272" fill="#EFF6FF" style="stroke:#64748B;stroke-width:0.5;" rx="4" ry="4"/><text x="33.5" y="198.512" fill="#000" font-size="14" textLength="89.194" font-family="Noto Sans CJK JP">Lexer / Parser</text></g><!--entity ast--><g class="entity" data-qualified-name="ast" id="ent0003" data-source-line="30"><rect x="50.5" y="282.772" width="55.242" height="43.272" fill="#F1F1F1" style="stroke:#181818;stroke-width:0.5;" rx="4" ry="4"/><polygon points="88.742,287.772,88.742,301.772,100.742,301.772,100.742,293.772,94.742,287.772,88.742,287.772" fill="#F1F1F1" style="stroke:#181818;stroke-width:0.5;stroke-linejoin:miter;stroke-miterlimit:10;"/><line x1="94.742" y1="287.772" x2="94.742" y2="293.772" style="stroke:#181818;stroke-width:0.5;"/><line x1="100.742" y1="293.772" x2="94.742" y2="293.772" style="stroke:#181818;stroke-width:0.5;"/><text x="60.5" y="312.012" fill="#000" font-size="14" textLength="25.242" font-family="Noto Sans CJK JP">AST</text></g><!--entity ir--><g class="entity" data-qualified-name="ir" id="ent0004" data-source-line="31"><rect x="35" y="405.272" width="86.392" height="43.272" fill="#F1F1F1" style="stroke:#181818;stroke-width:0.5;" rx="4" ry="4"/><polygon points="104.392,410.272,104.392,424.272,116.392,424.272,116.392,416.272,110.392,410.272,104.392,410.272" fill="#F1F1F1" style="stroke:#181818;stroke-width:0.5;stroke-linejoin:miter;stroke-miterlimit:10;"/><line x1="110.392" y1="410.272" x2="110.392" y2="416.272" style="stroke:#181818;stroke-width:0.5;"/><line x1="116.392" y1="416.272" x2="110.392" y2="416.272" style="stroke:#181818;stroke-width:0.5;"/><text x="45" y="434.512" fill="#000" font-size="14" textLength="56.392" font-family="Noto Sans CJK JP">Model IR</text></g><!--entity ini--><g class="entity" data-qualified-name="ini" id="ent0005" data-source-line="32"><rect x="165" y="272.272" width="155.999" height="63.544" fill="#F1F1F1" style="stroke:#181818;stroke-width:0.5;" rx="4" ry="4"/><polygon points="303.999,277.272,303.999,291.272,315.999,291.272,315.999,283.272,309.999,277.272,303.999,277.272" fill="#F1F1F1" style="stroke:#181818;stroke-width:0.5;stroke-linejoin:miter;stroke-miterlimit:10;"/><line x1="309.999" y1="277.272" x2="309.999" y2="283.272" style="stroke:#181818;stroke-width:0.5;"/><line x1="315.999" y1="283.272" x2="309.999" y2="283.272" style="stroke:#181818;stroke-width:0.5;"/><text x="175" y="301.512" fill="#000" font-size="14" textLength="18.326" font-family="Noto Sans CJK JP">INI</text><text x="175" y="321.784" fill="#000" font-size="14" textLength="125.999" font-family="Noto Sans CJK JP">インスタンス別設定</text></g><!--entity config--><g class="entity" data-qualified-name="config" id="ent0006" data-source-line="33"><rect x="156" y="396.272" width="173.999" height="60.544" fill="#EFF6FF" style="stroke:#64748B;stroke-width:0.5;" rx="4" ry="4"/><text x="166" y="422.512" fill="#000" font-size="14" textLength="128.967" font-family="Noto Sans CJK JP">Parameter Override</text><text x="166" y="442.784" fill="#000" font-size="14" textLength="153.999" font-family="Noto Sans CJK JP">型の既定値から値を解決</text></g><!--entity resolved--><g class="entity" data-qualified-name="resolved" id="ent0007" data-source-line="34"><rect x="93.5" y="521.272" width="132.788" height="43.272" fill="#F1F1F1" style="stroke:#181818;stroke-width:0.5;" rx="4" ry="4"/><polygon points="209.288,526.272,209.288,540.272,221.288,540.272,221.288,532.272,215.288,526.272,209.288,526.272" fill="#F1F1F1" style="stroke:#181818;stroke-width:0.5;stroke-linejoin:miter;stroke-miterlimit:10;"/><line x1="215.288" y1="526.272" x2="215.288" y2="532.272" style="stroke:#181818;stroke-width:0.5;"/><line x1="221.288" y1="532.272" x2="215.288" y2="532.272" style="stroke:#181818;stroke-width:0.5;"/><text x="103.5" y="550.512" fill="#000" font-size="14" textLength="102.788" font-family="Noto Sans CJK JP">Resolved Model</text></g><!--entity registry--><g class="entity" data-qualified-name="registry" id="ent0008" data-source-line="35"><rect x="72.5" y="628.272" width="175.217" height="60.544" fill="#EFF6FF" style="stroke:#64748B;stroke-width:0.5;" rx="4" ry="4"/><text x="82.5" y="654.512" fill="#000" font-size="14" textLength="153.551" font-family="Noto Sans CJK JP">Simple Module Registry</text><text x="82.5" y="674.784" fill="#000" font-size="14" textLength="155.217" font-family="Noto Sans CJK JP">型とRust実装の対応付け</text></g><!--entity nodes--><g class="entity" data-qualified-name="nodes" id="ent0009" data-source-line="36"><rect x="85" y="749.272" width="149.975" height="60.544" fill="#EFF6FF" style="stroke:#64748B;stroke-width:0.5;" rx="4" ry="4"/><text x="95" y="775.512" fill="#000" font-size="14" textLength="129.975" font-family="Noto Sans CJK JP">Rust NetworkNodes</text><text x="95" y="795.784" fill="#000" font-size="14" textLength="112" font-family="Noto Sans CJK JP">実行インスタンス</text></g><!--entity runtime--><g class="entity" data-qualified-name="runtime" id="ent0010" data-source-line="37"><rect x="84.5" y="870.272" width="150.577" height="40.272" fill="#EFF6FF" style="stroke:#64748B;stroke-width:0.5;" rx="4" ry="4"/><text x="94.5" y="896.512" fill="#000" font-size="14" textLength="130.577" font-family="Noto Sans CJK JP">Simulation Runtime</text></g><!--entity queue--><g class="entity" data-qualified-name="queue" id="ent0011" data-source-line="38"><rect x="21.5" y="970.272" width="62.896" height="40.272" fill="#EFF6FF" style="stroke:#64748B;stroke-width:0.5;" rx="4" ry="4"/><text x="31.5" y="996.512" fill="#000" font-size="14" textLength="42.896" font-family="Noto Sans CJK JP">Queue</text></g><!--entity resource--><g class="entity" data-qualified-name="resource" id="ent0012" data-source-line="39"><rect x="119.5" y="970.272" width="80.508" height="40.272" fill="#EFF6FF" style="stroke:#64748B;stroke-width:0.5;" rx="4" ry="4"/><text x="129.5" y="996.512" fill="#000" font-size="14" textLength="60.508" font-family="Noto Sans CJK JP">Resource</text></g><!--entity arbitration--><g class="entity" data-qualified-name="arbitration" id="ent0013" data-source-line="40"><rect x="235.5" y="970.272" width="91.19" height="40.272" fill="#EFF6FF" style="stroke:#64748B;stroke-width:0.5;" rx="4" ry="4"/><text x="245.5" y="996.512" fill="#000" font-size="14" textLength="71.19" font-family="Noto Sans CJK JP">Arbitration</text></g><!--entity metrics--><g class="entity" data-qualified-name="metrics" id="ent0014" data-source-line="41"><rect x="115" y="1070.272" width="90" height="60.544" fill="#EFF6FF" style="stroke:#64748B;stroke-width:0.5;" rx="4" ry="4"/><text x="125" y="1096.512" fill="#000" font-size="14" textLength="47.376" font-family="Noto Sans CJK JP">Metrics</text><text x="125" y="1116.784" fill="#000" font-size="14" textLength="70" font-family="Noto Sans CJK JP">記録・集計</text></g><!--entity csv--><g class="entity" data-qualified-name="csv" id="ent0015" data-source-line="42"><rect x="84.5" y="1191.272" width="55.326" height="43.272" fill="#F1F1F1" style="stroke:#181818;stroke-width:0.5;" rx="4" ry="4"/><polygon points="122.826,1196.272,122.826,1210.272,134.826,1210.272,134.826,1202.272,128.826,1196.272,122.826,1196.272" fill="#F1F1F1" style="stroke:#181818;stroke-width:0.5;stroke-linejoin:miter;stroke-miterlimit:10;"/><line x1="128.826" y1="1196.272" x2="128.826" y2="1202.272" style="stroke:#181818;stroke-width:0.5;"/><line x1="134.826" y1="1202.272" x2="128.826" y2="1202.272" style="stroke:#181818;stroke-width:0.5;"/><text x="94.5" y="1220.512" fill="#000" font-size="14" textLength="25.326" font-family="Noto Sans CJK JP">CSV</text></g><!--entity json--><g class="entity" data-qualified-name="json" id="ent0016" data-source-line="43"><rect x="175" y="1191.272" width="66.344" height="43.272" fill="#F1F1F1" style="stroke:#181818;stroke-width:0.5;" rx="4" ry="4"/><polygon points="224.344,1196.272,224.344,1210.272,236.344,1210.272,236.344,1202.272,230.344,1196.272,224.344,1196.272" fill="#F1F1F1" style="stroke:#181818;stroke-width:0.5;stroke-linejoin:miter;stroke-miterlimit:10;"/><line x1="230.344" y1="1196.272" x2="230.344" y2="1202.272" style="stroke:#181818;stroke-width:0.5;"/><line x1="236.344" y1="1202.272" x2="230.344" y2="1202.272" style="stroke:#181818;stroke-width:0.5;"/><text x="185" y="1220.512" fill="#000" font-size="14" textLength="36.344" font-family="Noto Sans CJK JP">JSON</text></g><g class="entity" data-qualified-name="GMN34" id="ent0035" data-source-line="62"><path d="M262,521.272 L262,538.772 L226.84,542.772 L262,546.772 L262,563.816 A4,4 0 0 0 266,567.816 L535.787,567.816 A4,4 0 0 0 539.787,563.816 L539.787,527.272 L529.787,517.272 L266,517.272 A4,4 0 0 0 262,521.272" style="stroke:#D6C77A;stroke-width:0.5;" fill="#FFFBEA"/><path d="M529.787,517.272 L529.787,525.272 A2,2 0 0 0 531.787,527.272 L539.787,527.272 L529.787,517.272" style="stroke:#D6C77A;stroke-width:0.5;" fill="#FFFBEA"/><text x="268" y="538.512" fill="#000" font-size="14" textLength="186.717" font-family="Noto Sans CJK JP">INIはModel IRを変更しない。</text><text x="268" y="558.784" fill="#000" font-size="14" textLength="256.787" font-family="Noto Sans CJK JP">解決結果をResolved Modelへ反映する。</text></g><g class="entity" data-qualified-name="GMN37" id="ent0038" data-source-line="66"><path d="M283,637.272 L283,654.772 L247.51,658.772 L283,662.772 L283,679.816 A4,4 0 0 0 287,683.816 L551.271,683.816 A4,4 0 0 0 555.271,679.816 L555.271,643.272 L545.271,633.272 L287,633.272 A4,4 0 0 0 283,637.272" style="stroke:#D6C77A;stroke-width:0.5;" fill="#FFFBEA"/><path d="M545.271,633.272 L545.271,641.272 A2,2 0 0 0 547.271,643.272 L555.271,643.272 L545.271,633.272" style="stroke:#D6C77A;stroke-width:0.5;" fill="#FFFBEA"/><text x="289" y="654.512" fill="#000" font-size="14" textLength="225.469" font-family="Noto Sans CJK JP">compoundは構造として展開する。</text><text x="289" y="674.784" fill="#000" font-size="14" textLength="251.271" font-family="Noto Sans CJK JP">振る舞い実装の対象はsimple module。</text></g><!--link ned to parser--><g class="link" data-entity-1="ent0001" data-entity-2="ent0002" id="lnk17" data-source-line="44" data-link-type="dependency"><path d="M78,112.502 C78,131.682 78,150.642 78,167.072" style="stroke:#475569;stroke-width:1;" fill="none" id="ned-to-parser"/><polygon points="78,172.072,82,163.072,78,167.072,74,163.072,78,172.072" fill="#475569" style="stroke:#475569;stroke-width:1;stroke-linejoin:miter;stroke-miterlimit:10;"/></g><!--link parser to ast--><g class="link" data-entity-1="ent0002" data-entity-2="ent0003" id="lnk18" data-source-line="45" data-link-type="dependency"><path d="M78,212.432 C78,232.002 78,257.312 78,277.462" style="stroke:#475569;stroke-width:1;" fill="none" id="parser-to-ast"/><polygon points="78,282.462,82,273.462,78,277.462,74,273.462,78,282.462" fill="#475569" style="stroke:#475569;stroke-width:1;stroke-linejoin:miter;stroke-miterlimit:10;"/></g><!--link ast to ir--><g class="link" data-entity-1="ent0003" data-entity-2="ent0004" id="lnk19" data-source-line="46" data-link-type="dependency"><path d="M78,325.982 C78,348.062 78,377.802 78,399.922" style="stroke:#475569;stroke-width:1;" fill="none" id="ast-to-ir"/><polygon points="78,404.922,82,395.922,78,399.922,74,395.922,78,404.922" fill="#475569" style="stroke:#475569;stroke-width:1;stroke-linejoin:miter;stroke-miterlimit:10;"/></g><!--link ini to config--><g class="link" data-entity-1="ent0005" data-entity-2="ent0006" id="lnk20" data-source-line="47" data-link-type="dependency"><path d="M243,336.302 C243,354.712 243,372.922 243,391.092" style="stroke:#475569;stroke-width:1;" fill="none" id="ini-to-config"/><polygon points="243,396.092,247,387.092,243,391.092,239,387.092,243,396.092" fill="#475569" style="stroke:#475569;stroke-width:1;stroke-linejoin:miter;stroke-miterlimit:10;"/></g><!--link ir to resolved--><g class="link" data-entity-1="ent0004" data-entity-2="ent0007" id="lnk21" data-source-line="48" data-link-type="dependency"><path d="M92.85,448.412 C107.62,468.952 127.241,496.222 142.061,516.832" style="stroke:#475569;stroke-width:1;" fill="none" id="ir-to-resolved"/><polygon points="144.98,520.892,142.973,511.25,142.061,516.832,136.478,515.92,144.98,520.892" fill="#475569" style="stroke:#475569;stroke-width:1;stroke-linejoin:miter;stroke-miterlimit:10;"/></g><!--link config to resolved--><g class="link" data-entity-1="ent0006" data-entity-2="ent0007" id="lnk22" data-source-line="49" data-link-type="dependency"><path d="M221.41,457.422 C206.81,477.482 190.843,499.41 177.883,517.21" style="stroke:#475569;stroke-width:1;" fill="none" id="config-to-resolved"/><polygon points="174.94,521.252,183.471,516.331,177.883,517.21,177.004,511.622,174.94,521.252" fill="#475569" style="stroke:#475569;stroke-width:1;stroke-linejoin:miter;stroke-miterlimit:10;"/></g><!--link resolved to registry--><g class="link" data-entity-1="ent0007" data-entity-2="ent0008" id="lnk23" data-source-line="50" data-link-type="dependency"><path d="M160,564.412 C160,582.122 160,602.872 160,622.842" style="stroke:#475569;stroke-width:1;" fill="none" id="resolved-to-registry"/><polygon points="160,627.842,164,618.842,160,622.842,156,618.842,160,627.842" fill="#475569" style="stroke:#475569;stroke-width:1;stroke-linejoin:miter;stroke-miterlimit:10;"/></g><!--link registry to nodes--><g class="link" data-entity-1="ent0008" data-entity-2="ent0009" id="lnk24" data-source-line="51" data-link-type="dependency"><path d="M160,689.492 C160,707.672 160,725.832 160,744.012" style="stroke:#475569;stroke-width:1;" fill="none" id="registry-to-nodes"/><polygon points="160,749.012,164,740.012,160,744.012,156,740.012,160,749.012" fill="#475569" style="stroke:#475569;stroke-width:1;stroke-linejoin:miter;stroke-miterlimit:10;"/></g><!--link nodes to runtime--><g class="link" data-entity-1="ent0009" data-entity-2="ent0010" id="lnk25" data-source-line="52" data-link-type="dependency"><path d="M160,810.422 C160,829.492 160,848.712 160,865.252" style="stroke:#475569;stroke-width:1;" fill="none" id="nodes-to-runtime"/><polygon points="160,870.252,164,861.252,160,865.252,156,861.252,160,870.252" fill="#475569" style="stroke:#475569;stroke-width:1;stroke-linejoin:miter;stroke-miterlimit:10;"/></g><!--link runtime to queue--><g class="link" data-entity-1="ent0010" data-entity-2="ent0011" id="lnk26" data-source-line="53" data-link-type="dependency"><path d="M139.12,910.402 C120.26,927.672 96.358,949.565 77.518,966.815" style="stroke:#475569;stroke-width:1;" fill="none" id="runtime-to-queue"/><polygon points="73.83,970.192,83.169,967.064,77.518,966.815,77.767,961.164,73.83,970.192" fill="#475569" style="stroke:#475569;stroke-width:1;stroke-linejoin:miter;stroke-miterlimit:10;"/></g><!--link runtime to resource--><g class="link" data-entity-1="ent0010" data-entity-2="ent0012" id="lnk27" data-source-line="54" data-link-type="dependency"><path d="M160,910.632 C160,927.812 160,947.782 160,964.952" style="stroke:#475569;stroke-width:1;" fill="none" id="runtime-to-resource"/><polygon points="160,969.952,164,960.952,160,964.952,156,960.952,160,969.952" fill="#475569" style="stroke:#475569;stroke-width:1;stroke-linejoin:miter;stroke-miterlimit:10;"/></g><!--link runtime to arbitration--><g class="link" data-entity-1="ent0010" data-entity-2="ent0013" id="lnk28" data-source-line="55" data-link-type="dependency"><path d="M183.62,910.402 C204.94,927.672 232.254,949.795 253.554,967.045" style="stroke:#475569;stroke-width:1;" fill="none" id="runtime-to-arbitration"/><polygon points="257.44,970.192,252.963,961.419,253.554,967.045,247.929,967.636,257.44,970.192" fill="#475569" style="stroke:#475569;stroke-width:1;stroke-linejoin:miter;stroke-miterlimit:10;"/></g><!--link queue to metrics--><g class="link" data-entity-1="ent0011" data-entity-2="ent0014" id="lnk29" data-source-line="56" data-link-type="dependency"><path d="M71.88,1010.422 C88.2,1026.972 108.539,1047.592 127.309,1066.622" style="stroke:#475569;stroke-width:1;" fill="none" id="queue-to-metrics"/><polygon points="130.82,1070.182,127.348,1060.965,127.309,1066.622,121.652,1066.583,130.82,1070.182" fill="#475569" style="stroke:#475569;stroke-width:1;stroke-linejoin:miter;stroke-miterlimit:10;"/></g><!--link resource to metrics--><g class="link" data-entity-1="ent0012" data-entity-2="ent0014" id="lnk30" data-source-line="57" data-link-type="dependency"><path d="M160,1010.422 C160,1026.972 160,1046.152 160,1065.182" style="stroke:#475569;stroke-width:1;" fill="none" id="resource-to-metrics"/><polygon points="160,1070.182,164,1061.182,160,1065.182,156,1061.182,160,1070.182" fill="#475569" style="stroke:#475569;stroke-width:1;stroke-linejoin:miter;stroke-miterlimit:10;"/></g><!--link arbitration to metrics--><g class="link" data-entity-1="ent0013" data-entity-2="ent0014" id="lnk31" data-source-line="58" data-link-type="dependency"><path d="M259.65,1010.422 C241.19,1026.972 217.943,1047.815 196.713,1066.845" style="stroke:#475569;stroke-width:1;" fill="none" id="arbitration-to-metrics"/><polygon points="192.99,1070.182,202.362,1067.153,196.713,1066.845,197.022,1061.196,192.99,1070.182" fill="#475569" style="stroke:#475569;stroke-width:1;stroke-linejoin:miter;stroke-miterlimit:10;"/></g><!--link metrics to csv--><g class="link" data-entity-1="ent0014" data-entity-2="ent0015" id="lnk32" data-source-line="59" data-link-type="dependency"><path d="M147.01,1131.542 C138.79,1150.372 130.367,1169.658 123.047,1186.458" style="stroke:#475569;stroke-width:1;" fill="none" id="metrics-to-csv"/><polygon points="121.05,1191.042,128.312,1184.389,123.047,1186.458,120.978,1181.193,121.05,1191.042" fill="#475569" style="stroke:#475569;stroke-width:1;stroke-linejoin:miter;stroke-miterlimit:10;"/></g><!--link metrics to json--><g class="link" data-entity-1="ent0014" data-entity-2="ent0016" id="lnk33" data-source-line="60" data-link-type="dependency"><path d="M172.99,1131.542 C181.21,1150.372 189.633,1169.658 196.953,1186.458" style="stroke:#475569;stroke-width:1;" fill="none" id="metrics-to-json"/><polygon points="198.95,1191.042,199.022,1181.193,196.953,1186.458,191.688,1184.389,198.95,1191.042" fill="#475569" style="stroke:#475569;stroke-width:1;stroke-linejoin:miter;stroke-miterlimit:10;"/></g><g class="legend" data-source-line="69"><rect x="118.898" y="1254.544" width="325.475" height="50.544" fill="none" style="stroke:#000;stroke-width:1;" rx="4" ry="4"/><text x="123.898" y="1275.784" fill="#000" font-size="14" textLength="223.999" font-family="Noto Sans CJK JP">矢印は処理・データの関係を示す。</text><text x="123.898" y="1296.056" fill="#000" font-size="14" textLength="315.475" font-family="Noto Sans CJK JP">並列実行や確定した公開APIを示すものではない。</text></g><?plantuml-src hLLRJnj757xthnYHXpo5g2h1X8TAvc89cZWkhlh4o-8Tp1HxnfsTnILFx6v2Z21g6gc1bWZ29K3R14elAYK8ViomlZpbB_Jip1h6uBPvg8IyPyvyvtndpesRQ8ZbtHAceXzrTz-6F-blok14-czbC2_z0nbuCjXgxBrjx5LhgqVT9Jjn4-LmNX16-r6AvwU8W9FBCNemW_aCmHK0P5rUPWxkHp80Rqzay7Eu_qFzz4VfBKf_GVf_oc1T1gzby4PnmN5N1h_L_tXMMtiflLFfxRu_gSQa6zNt9mk9X3DDQDdYLWbDMFdf0cSkjGTPaN5KYK8mxcqyQRb5aMPKPAmIHXac6CfPr463ev-YqMndQ8uynEYZ7kFIcR9iLY6qW2QjecCoAF8yunHpr6VeKvopYWxgHa_opftUkyRbFKBnFztbMQdCA5GX9sQB6778g4KBHTm9Cd3b-JU6q-dUTBeZb74RynZMsvFiwHimO1OKSOQ8sVzsU87y87z3n2enQbzpcqwdayD3XW5b0dT23Godhg9Cug7UmMJIHEIBbkDyG5eKx5-VK0OdLg53K7tfL7gm0z3qThSdzV50No8XY80Q_d-TBrWPGGTFC24Oj2pXUleI5XTa4fAEkZB3G-EqjhlOd7ibWtVXsYByrfOtWJcSs-v2beCejXCNRO6wxk6leNLlewp57SmLegn4msagzxcwi1nXQEyp6nVHo9Yw8YP-93CoJgM_3S-H_b_IFzD2M7qDpu5Gj0KbPXpPA9bOG2pHyk34nkCq2j_RlmXV9ouI_EUDtQtQuR5ob6TqaXGC-Z7iiE8Cjf6AK65uh38PSwHKXke0o8NF62uGH_3Pc7Llp7L4kB_Us7eC8OG7f-7Po_DtAzBxDlQdqQQ_o09biAWmFfq1PWTSWOEDfUkPq8M8C5S2SejML50qvb91IbXpQTb4VkPYLrz-5KbjKS1BNPx75y-E3YOWnIU8u8f65_NoRCBkOy597jxGs5jfBlqARTHSdOTML3ObVMdaV33tXIw6CsDeHtCFCahzfGFUeVFGhLkVjFfBVvH6DHPaBvAXaw0rb1XNbcYGKSD8tQvh2R4shavBK5gTR_MhKN5Uuw_IwNIQceiKcaepPyf4QLjPQPcqAGsJDdtyrU-5v9bddJLOUeYJmfH0RFBomGZ1b4dle3M5C1FXza9jzNVfBKll9-azadC-eFIWn5l5Vzu-6z8x2hzvMbjv9RtlfRyOMM1ggprxZJTEATB_Ks0X0dcyQBmzHReJ7dxNVB5uwGkXsj81o8tg6iHZJbFZS0FC7Js19JM1RUH5N8XalUZ0JtrzCtpw2vY4JtRgp-QX6zL6FOacojjlljWyF_FXTVNjuuXTKPyVxOJLvTO4Fgfl7iCMKN6kXu_VG9ofxCYbYU-37rYvG76PFGX11_8t?></g></svg>