<svg xmlns="http://www.w3.org/2000/svg" xmlns:xlink="http://www.w3.org/1999/xlink" version="1.1" data-diagram-type="ACTIVITY" style="width:439px;height:655px;background:#FFFFFF;" width="439px" height="655px" viewBox="0 0 439 655" zoomAndPan="magnify" preserveAspectRatio="none" contentStyleType="text/css"><?plantuml 1.2026.8?><defs/><g font-family="sans-serif" lengthAdjust="spacing"><g class="title" data-source-line="25"><text x="94.926" y="36.24" fill="#000" font-size="14" textLength="247.578" font-weight="700" font-family="Noto Sans CJK JP">NEDからModel IRへの解析（設計案）</text></g><ellipse cx="217.715" cy="66.272" rx="10" ry="10" fill="#222" style="stroke:#222;stroke-width:1;"/><rect x="170.216" y="96.272" width="94.998" height="40.272" fill="#EFF6FF" style="stroke:#64748B;stroke-width:0.5;" rx="4" ry="4"/><text x="180.216" y="122.512" fill="#000" font-size="14" textLength="74.998" font-family="Noto Sans CJK JP">NED source</text><rect x="189.956" y="156.544" width="55.518" height="40.272" fill="#EFF6FF" style="stroke:#64748B;stroke-width:0.5;" rx="4" ry="4"/><text x="199.956" y="182.784" fill="#000" font-size="14" textLength="35.518" font-family="Noto Sans CJK JP">Lexer</text><rect x="161.872" y="216.816" width="111.686" height="40.272" fill="#EFF6FF" style="stroke:#64748B;stroke-width:0.5;" rx="4" ry="4"/><text x="171.872" y="243.056" fill="#000" font-size="14" textLength="91.686" font-family="Noto Sans CJK JP">Token Stream</text><rect x="186.757" y="277.088" width="61.916" height="40.272" fill="#EFF6FF" style="stroke:#64748B;stroke-width:0.5;" rx="4" ry="4"/><text x="196.757" y="303.328" fill="#000" font-size="14" textLength="41.916" font-family="Noto Sans CJK JP">Parser</text><rect x="195.094" y="337.36" width="45.242" height="40.272" fill="#EFF6FF" style="stroke:#64748B;stroke-width:0.5;" rx="4" ry="4"/><text x="205.094" y="363.599" fill="#000" font-size="14" textLength="25.242" font-family="Noto Sans CJK JP">AST</text><rect x="142.034" y="397.631" width="151.361" height="60.544" fill="#EFF6FF" style="stroke:#64748B;stroke-width:0.5;" rx="4" ry="4"/><text x="152.034" y="423.871" fill="#000" font-size="14" textLength="131.361" font-family="Noto Sans CJK JP">Semantic Validation</text><text x="152.034" y="444.143" fill="#000" font-size="14" textLength="56" font-family="Noto Sans CJK JP">意味検証</text><rect x="179.519" y="478.175" width="76.392" height="40.272" fill="#EFF6FF" style="stroke:#64748B;stroke-width:0.5;" rx="4" ry="4"/><text x="189.519" y="504.415" fill="#000" font-size="14" textLength="56.392" font-family="Noto Sans CJK JP">Model IR</text><ellipse cx="217.715" cy="549.447" rx="11" ry="11" fill="none" style="stroke:#222;stroke-width:1;"/><ellipse cx="217.715" cy="549.447" rx="6" ry="6" fill="#222" style="stroke:#222;stroke-width:1;"/><line x1="217.715" y1="76.272" x2="217.715" y2="96.272" style="stroke:#475569;stroke-width:1;"/><polygon points="213.715,86.272,217.715,96.272,221.715,86.272,217.715,90.272" fill="#475569" style="stroke:#475569;stroke-width:1;stroke-linejoin:miter;stroke-miterlimit:10;"/><line x1="217.715" y1="136.544" x2="217.715" y2="156.544" style="stroke:#475569;stroke-width:1;"/><polygon points="213.715,146.544,217.715,156.544,221.715,146.544,217.715,150.544" fill="#475569" style="stroke:#475569;stroke-width:1;stroke-linejoin:miter;stroke-miterlimit:10;"/><line x1="217.715" y1="196.816" x2="217.715" y2="216.816" style="stroke:#475569;stroke-width:1;"/><polygon points="213.715,206.816,217.715,216.816,221.715,206.816,217.715,210.816" fill="#475569" style="stroke:#475569;stroke-width:1;stroke-linejoin:miter;stroke-miterlimit:10;"/><line x1="217.715" y1="257.088" x2="217.715" y2="277.088" style="stroke:#475569;stroke-width:1;"/><polygon points="213.715,267.088,217.715,277.088,221.715,267.088,217.715,271.088" fill="#475569" style="stroke:#475569;stroke-width:1;stroke-linejoin:miter;stroke-miterlimit:10;"/><line x1="217.715" y1="317.36" x2="217.715" y2="337.36" style="stroke:#475569;stroke-width:1;"/><polygon points="213.715,327.36,217.715,337.36,221.715,327.36,217.715,331.36" fill="#475569" style="stroke:#475569;stroke-width:1;stroke-linejoin:miter;stroke-miterlimit:10;"/><line x1="217.715" y1="377.631" x2="217.715" y2="397.631" style="stroke:#475569;stroke-width:1;"/><polygon points="213.715,387.631,217.715,397.631,221.715,387.631,217.715,391.631" fill="#475569" style="stroke:#475569;stroke-width:1;stroke-linejoin:miter;stroke-miterlimit:10;"/><line x1="217.715" y1="458.175" x2="217.715" y2="478.175" style="stroke:#475569;stroke-width:1;"/><polygon points="213.715,468.175,217.715,478.175,221.715,468.175,217.715,472.175" fill="#475569" style="stroke:#475569;stroke-width:1;stroke-linejoin:miter;stroke-miterlimit:10;"/><line x1="217.715" y1="518.447" x2="217.715" y2="538.447" style="stroke:#475569;stroke-width:1;"/><polygon points="213.715,528.447,217.715,538.447,221.715,528.447,217.715,532.447" fill="#475569" style="stroke:#475569;stroke-width:1;stroke-linejoin:miter;stroke-miterlimit:10;"/><g class="legend" data-source-line="37"><rect x="22" y="581.447" width="393.43" height="50.544" fill="none" style="stroke:#000;stroke-width:1;" rx="4" ry="4"/><text x="27" y="602.687" fill="#000" font-size="14" textLength="209.999" font-family="Noto Sans CJK JP">公開NED仕様に基づく独立実装。</text><text x="27" y="622.959" fill="#000" font-size="14" textLength="383.43" font-family="Noto Sans CJK JP">受理構文と検証規則はNED詳細仕様の6.4サブセットに従う。</text></g><?plantuml-src bPFFRzCm5CVl-IiixR1R4Q9hk-xKNv4Oewh8nDrBl2vgObUEIncd9M6ZLGyTGXGa40CAjB2rGnf84wl67sEQPgVz2pXjXw9HO4XH8ljztlVx_9mt3x94hPW8ioI8HAw9XpjlkJlWJe-xEzmvvAxDtRRVxVdTclVYE69gqZnGaCfqWfCWdyjok-z_wlcd0sv_vtRNwpJEjbvxxrxwtO4W2nLQ9XQQaWtkr6yJ3HdWvXrk7mUfdRRtQlTyK9iwlAcT3-gIP9LqN8OKcc0DggKY9HMiPOX1AAXkw0o5uXfQXnM3oGIpF3GHo1D6W0An1JBBjy1oOJQgw0yGk1uD1QqDg96gZejW7HfMs65ihXAA4GM9q7wAKbAT53KNZIyin1P3mHKTep_5L6AM2HOjLzYcWG0LpOIuQA1PIFhIyUToiXoJvPaeeHgYKomMZKSJwH06nOtTqzdclmL_aLVIo-hG95ZxJLQMvNWk6qh0XA5PL3gNkao5ZREnJ3mU9bG3MjOLsZB6_dg4iX21nHb59UIKd9a1XjKMewaRwOGaCPs9E_pFlvj1ogIaI08MgL0LBKd95NGVKV5T9IM4WS8eWgPO5Y2rnlifPLMy5MH2p7GLt8M6hi5W22NlONFu-6WoSGAvg619s92oPA0YmXfO8umHKm9Wk7rmrce8wnydJxtESsxl3_U-SVizjvkZni5elp7ix_djRRxb173psMXtHuoqrteKpFROm__G7DR5yb28-1-FHby-NqZrOv4eTxvojyMT4-wwtAq5-gTFkBqJ28f29kNy1000?></g></svg>